<svg xmlns="http://www.w3.org/2000/svg" width="32" height="32" viewBox="0 0 32 32">
  <path id="_036-pirate" data-name="036-pirate" d="M16,32A16,16,0,0,1,4.686,4.686,16,16,0,0,1,27.314,27.314,15.9,15.9,0,0,1,16,32ZM16,2.5A13.5,13.5,0,1,0,29.5,16,13.515,13.515,0,0,0,16,2.5Zm5.827,16.258a1.25,1.25,0,0,0-1.726.383,5.5,5.5,0,0,1-4.2,2.421,5.5,5.5,0,0,1-4.2-2.421A1.25,1.25,0,0,0,9.6,20.484a8.037,8.037,0,0,0,6.3,3.579,8.036,8.036,0,0,0,6.3-3.579,1.25,1.25,0,0,0-.383-1.726ZM10.213,17.066a4.278,4.278,0,0,1-3.968-2.7l-.366-.926a2.5,2.5,0,0,1,1.6-3.312A60.05,60.05,0,0,0,18.987,5.162,1.25,1.25,0,1,1,20.2,7.348a62.625,62.625,0,0,1-12,5.172l.367.925a1.767,1.767,0,0,0,2.315.985,1.633,1.633,0,0,0,.969-.977,1.25,1.25,0,1,1,2.354.843,4.145,4.145,0,0,1-2.372,2.447A4.261,4.261,0,0,1,10.213,17.066Zm11.193-6.754a1.563,1.563,0,1,1-1.562,1.563A1.563,1.563,0,0,1,21.406,10.312Z"/>
</svg>
