<svg xmlns="http://www.w3.org/2000/svg" width="32" height="32" viewBox="0 0 32 32">
  <path id="_049-dead" data-name="049-dead" d="M16,32A16,16,0,0,1,4.686,4.686,16,16,0,0,1,27.314,27.314,15.9,15.9,0,0,1,16,32ZM16,2.5A13.5,13.5,0,1,0,29.5,16,13.515,13.515,0,0,0,16,2.5Zm6.875,20.938v-.5A3.379,3.379,0,0,0,19.5,19.562H11a1.25,1.25,0,0,0,0,2.5h8.5a.876.876,0,0,1,.875.875v.5a1.251,1.251,0,0,1-1.25,1.25,1.27,1.27,0,0,1-.938-.452,1.25,1.25,0,0,0-1.874,1.654,3.733,3.733,0,0,0,6.562-2.452Zm-.062-6.812a1.246,1.246,0,0,1-.884-.366l-.991-.991-.991.991a1.25,1.25,0,0,1-1.768-1.768l.991-.991-.991-.991a1.25,1.25,0,0,1,1.768-1.768l.991.991.991-.991A1.25,1.25,0,0,1,23.7,12.509l-.991.991.991.991a1.25,1.25,0,0,1-.884,2.134Zm-9.875,0a1.246,1.246,0,0,1-.884-.366l-.991-.991-.991.991A1.25,1.25,0,1,1,8.3,14.491l.991-.991L8.3,12.509a1.25,1.25,0,1,1,1.768-1.768l.991.991.991-.991a1.25,1.25,0,1,1,1.768,1.768l-.991.991.991.991a1.25,1.25,0,0,1-.884,2.134Z"/>
</svg>
