<svg xmlns="http://www.w3.org/2000/svg" width="32" height="32" viewBox="0 0 32 32">
  <path id="_042-muted" data-name="042-muted" d="M16,32A16,16,0,0,1,4.686,4.686,16,16,0,0,1,27.314,27.314,15.9,15.9,0,0,1,16,32ZM16,2.5A13.5,13.5,0,1,0,29.5,16,13.515,13.515,0,0,0,16,2.5Zm1.768,19.125,2.241-2.241a1.25,1.25,0,1,0-1.768-1.768L16,19.857l-2.241-2.241a1.25,1.25,0,1,0-1.768,1.768l2.241,2.241-2.241,2.241a1.25,1.25,0,0,0,1.768,1.768L16,23.393l2.241,2.241a1.25,1.25,0,0,0,1.768-1.768ZM10.5,10.375a1.563,1.563,0,1,1-1.563,1.563A1.563,1.563,0,0,1,10.5,10.375Zm9.437,1.563A1.563,1.563,0,1,0,21.5,10.375,1.563,1.563,0,0,0,19.937,11.937Z"/>
</svg>
