<svg xmlns="http://www.w3.org/2000/svg" width="32" height="32" viewBox="0 0 32 32">
  <path id="_016-upside_down" data-name="016-upside down" d="M16,32A16,16,0,0,1,4.686,4.686,16,16,0,0,1,27.314,27.314,15.9,15.9,0,0,1,16,32ZM16,2.5A13.5,13.5,0,1,0,29.5,16,13.515,13.515,0,0,0,16,2.5Zm6.3,9.079A8.036,8.036,0,0,0,16,8a8.036,8.036,0,0,0-6.3,3.579A1.25,1.25,0,0,0,11.8,12.921,5.5,5.5,0,0,1,16,10.5a5.5,5.5,0,0,1,4.2,2.421A1.25,1.25,0,0,0,22.3,11.579Zm-.8,10.109a1.563,1.563,0,1,1,1.563-1.562A1.563,1.563,0,0,1,21.5,21.687Zm-9.375-1.562a1.563,1.563,0,1,0-1.562,1.563A1.563,1.563,0,0,0,12.125,20.125Z"/>
</svg>
