<svg xmlns="http://www.w3.org/2000/svg" width="32" height="32" viewBox="0 0 32 32">
  <path id="_002-smiling" data-name="002-smiling" d="M16,32A16,16,0,0,1,4.686,4.686,16,16,0,0,1,27.314,27.314,15.9,15.9,0,0,1,16,32ZM16,2.5A13.5,13.5,0,1,0,29.5,16,13.515,13.515,0,0,0,16,2.5Zm5.859,16.324a1.25,1.25,0,0,0-1.726.383,5.5,5.5,0,0,1-4.2,2.421,5.5,5.5,0,0,1-4.2-2.421A1.25,1.25,0,0,0,9.633,20.55a8.037,8.037,0,0,0,6.3,3.579,8.036,8.036,0,0,0,6.3-3.579,1.25,1.25,0,0,0-.383-1.726ZM8.376,15.188a1.25,1.25,0,0,1-.806-2.206,5.849,5.849,0,0,1,3.81-1.544h1.683a1.25,1.25,0,0,1,0,2.5H11.375a6.1,6.1,0,0,0-2.2.956,1.245,1.245,0,0,1-.8.294Zm15.186-.063a1.244,1.244,0,0,1-.762-.26,3.776,3.776,0,0,0-2.335-.927H18.874a1.25,1.25,0,0,1,0-2.5h1.55a6.183,6.183,0,0,1,3.9,1.446,1.25,1.25,0,0,1-.764,2.24Z"/>
</svg>
