<svg xmlns="http://www.w3.org/2000/svg" width="32" height="32" viewBox="0 0 32 32">
  <path id="_019-grinning" data-name="019-grinning" d="M16,32A16,16,0,0,1,4.686,4.686,16,16,0,0,1,27.314,27.314,15.9,15.9,0,0,1,16,32ZM16,2.5A13.5,13.5,0,1,0,29.5,16,13.515,13.515,0,0,0,16,2.5Zm0,23.25a6.783,6.783,0,0,1-6.153-3.226,2.764,2.764,0,0,1-.056-2.83,2.821,2.821,0,0,1,2.459-1.444h7.5a2.821,2.821,0,0,1,2.459,1.444,2.764,2.764,0,0,1-.056,2.83A6.784,6.784,0,0,1,16,25.75Zm-3.749-5a.308.308,0,0,0-.277.164.284.284,0,0,0,0,.3A4.383,4.383,0,0,0,16,23.25a4.383,4.383,0,0,0,4.023-2.035.284.284,0,0,0,0-.3.308.308,0,0,0-.277-.164ZM21.437,15a1.25,1.25,0,0,1-1.25-1.25V10.312a1.25,1.25,0,1,1,2.5,0V13.75A1.25,1.25,0,0,1,21.437,15ZM11.75,13.75V10.312a1.25,1.25,0,1,0-2.5,0V13.75a1.25,1.25,0,0,0,2.5,0Z"/>
</svg>
