<svg xmlns="http://www.w3.org/2000/svg" width="32" height="32" viewBox="0 0 32 32">
  <path id="_021-kissing" data-name="021-kissing" d="M16,32A16,16,0,0,1,4.686,4.686,16,16,0,0,1,27.314,27.314,15.9,15.9,0,0,1,16,32ZM16,2.5A13.5,13.5,0,1,0,29.5,16,13.515,13.515,0,0,0,16,2.5Zm4.312,21.543a3.436,3.436,0,0,0-.319-1.464.837.837,0,0,1,.024-.683,3.516,3.516,0,0,0,.3-1.454,3.043,3.043,0,0,0-3.045-3h-2.08a1.25,1.25,0,0,0,0,2.5h2.08a.537.537,0,0,1,.545.522,1.019,1.019,0,0,1-.083.427,3.333,3.333,0,0,0-.006,2.742.94.94,0,0,1,.088.406.54.54,0,0,1-.548.528H15.187a1.25,1.25,0,0,0,0,2.5h2.077A3.045,3.045,0,0,0,20.312,24.043ZM8.438,14.562a1.25,1.25,0,0,1-.806-2.206,5.83,5.83,0,0,1,3.81-1.544h1.683a1.25,1.25,0,0,1,0,2.5H11.407a3.455,3.455,0,0,0-2.165.956A1.245,1.245,0,0,1,8.438,14.562Zm16.177-.55a1.25,1.25,0,0,0-.228-1.753,6.18,6.18,0,0,0-3.9-1.446h-1.55a1.25,1.25,0,0,0,0,2.5h1.591a3.775,3.775,0,0,1,2.335.927,1.25,1.25,0,0,0,1.753-.228Z" transform="translate(0)"/>
</svg>
