<svg xmlns="http://www.w3.org/2000/svg" width="31.995" height="32" viewBox="0 0 31.995 32">
  <path id="_022-rolling" data-name="022-rolling" d="M17.925,25.189A6.95,6.95,0,0,1,16.314,25a2.779,2.779,0,0,1-2.052-1.972,2.836,2.836,0,0,1,.722-2.775l5.355-5.355a2.836,2.836,0,0,1,2.775-.722,2.779,2.779,0,0,1,1.972,2.052A6.838,6.838,0,0,1,23,22.91,7.039,7.039,0,0,1,17.925,25.189Zm4.411-8.625a.316.316,0,0,0-.229.1h0l-5.355,5.355a.323.323,0,0,0-.084.327.3.3,0,0,0,.227.221,4.438,4.438,0,0,0,4.338-1.423A4.438,4.438,0,0,0,22.655,16.8a.3.3,0,0,0-.221-.227A.369.369,0,0,0,22.336,16.564Zm5.919-3.812c-.614,0-1.7-.209-4.007-2.016a2.2,2.2,0,0,1,0-3.467c2.31-1.807,3.393-2.016,4.007-2.016a3.75,3.75,0,1,1,0,7.5ZM26.1,9a5.751,5.751,0,0,0,2.165,1.25,1.25,1.25,0,1,0,0-2.5A5.752,5.752,0,0,0,26.1,9ZM21.828,30.913a15.987,15.987,0,0,0,10.2-15.395,1.25,1.25,0,1,0-2.5.074,13.5,13.5,0,0,1-13.9,13.9,1.25,1.25,0,1,0-.074,2.5q.244.007.487.007A15.925,15.925,0,0,0,21.828,30.913ZM4.015,24.639a1.25,1.25,0,0,0,.43-1.715A13.5,13.5,0,0,1,22.962,4.408a1.25,1.25,0,0,0,1.284-2.145A16.083,16.083,0,0,0,14.166.107,16,16,0,0,0,.145,14.128,16.082,16.082,0,0,0,2.3,24.209a1.249,1.249,0,0,0,1.714.43ZM8.967,32a3.765,3.765,0,0,1-3.75-3.772c0-.613.209-1.7,2.016-4.007h0a2.2,2.2,0,0,1,3.466,0c1.807,2.311,2.016,3.393,2.016,4.007A3.765,3.765,0,0,1,8.967,32Zm-1.25-3.766a1.25,1.25,0,1,0,2.5,0,5.75,5.75,0,0,0-1.25-2.165A5.752,5.752,0,0,0,7.718,28.233Zm8.537-15.669A2.732,2.732,0,0,1,13.6,9.217a10.6,10.6,0,0,1,1.09-2.765,1.25,1.25,0,0,1,2.178,1.227,8.1,8.1,0,0,0-.835,2.112.208.208,0,0,0,.061.2.219.219,0,0,0,.209.066,6.224,6.224,0,0,0,2.051-.806A1.25,1.25,0,0,1,19.7,11.36,8.706,8.706,0,0,1,16.83,12.5,2.749,2.749,0,0,1,16.255,12.564Zm-4.93,7.109A8.706,8.706,0,0,0,12.468,16.8a2.73,2.73,0,0,0-3.287-3.227,10.6,10.6,0,0,0-2.765,1.09,1.25,1.25,0,0,0,1.227,2.178,8.1,8.1,0,0,1,2.112-.835.208.208,0,0,1,.2.061.219.219,0,0,1,.066.209,6.226,6.226,0,0,1-.806,2.051,1.25,1.25,0,1,0,2.107,1.345Z" transform="translate(-0.037 0)"/>
</svg>
