<svg xmlns="http://www.w3.org/2000/svg" width="32" height="32" viewBox="0 0 32 32">
  <path id="_025-emojis" data-name="025-emojis" d="M16,32a15.955,15.955,0,0,1-5.424-.943,1.25,1.25,0,0,1,.847-2.352A13.5,13.5,0,1,0,2.5,16a13.686,13.686,0,0,0,.123,1.832,1.25,1.25,0,0,1-2.477.336A16.2,16.2,0,0,1,0,16,16,16,0,0,1,27.314,4.686,16,16,0,0,1,16,32Zm6.242-9.859a8.037,8.037,0,0,0-6.3-3.579h0a6.838,6.838,0,0,0-2.9.651A1.25,1.25,0,1,0,14.09,21.48a4.358,4.358,0,0,1,1.848-.417h0a5.5,5.5,0,0,1,4.2,2.421,1.25,1.25,0,0,0,2.109-1.342ZM10.5,10.312a1.563,1.563,0,1,1-1.562,1.563A1.563,1.563,0,0,1,10.5,10.312Zm9.375,1.563a1.563,1.563,0,1,0,1.563-1.562A1.563,1.563,0,0,0,19.875,11.875ZM7,27.812a4.387,4.387,0,0,1-4.375-4.39c0-.414,0-1.675,2.456-4.8a2.44,2.44,0,0,1,3.838,0c2.456,3.126,2.456,4.387,2.456,4.8A4.387,4.387,0,0,1,7,27.812Zm0-7.587c-1.482,1.9-1.875,2.92-1.875,3.2a1.875,1.875,0,1,0,3.75,0C8.875,23.145,8.482,22.122,7,20.225Zm-.047-.06Z"/>
</svg>
