<svg xmlns="http://www.w3.org/2000/svg" width="32" height="32" viewBox="0 0 32 32">
  <path id="_031-worry" data-name="031-worry" d="M16,32A16,16,0,0,1,4.686,4.686,16,16,0,0,1,27.314,27.314,15.9,15.9,0,0,1,16,32ZM16,2.5A13.5,13.5,0,1,0,29.5,16,13.515,13.515,0,0,0,16,2.5Zm5.835,19.008a1.116,1.116,0,0,1,.782-.321,1.1,1.1,0,0,1,.749.321,1.25,1.25,0,0,0,1.769-1.767,3.573,3.573,0,0,0-5.069,0,1.162,1.162,0,0,1-.733.383,1.164,1.164,0,0,1-.736-.383,3.612,3.612,0,0,0-2.51-1.054h-.025a3.6,3.6,0,0,0-2.534,1.054,1.059,1.059,0,0,1-.736.321h0a1.037,1.037,0,0,1-.731-.321,3.573,3.573,0,0,0-5.069,0,1.25,1.25,0,0,0,1.769,1.767,1.1,1.1,0,0,1,.748-.321h.01a1.129,1.129,0,0,1,.773.321,3.518,3.518,0,0,0,2.5,1.054H12.8a3.576,3.576,0,0,0,2.5-1.054,1.074,1.074,0,0,1,1.531,0,3.616,3.616,0,0,0,2.5,1.117A3.614,3.614,0,0,0,21.835,21.508ZM10.5,10.312a1.562,1.562,0,1,1-1.563,1.563A1.563,1.563,0,0,1,10.5,10.312Zm9.375,1.563a1.563,1.563,0,1,0,1.563-1.562A1.563,1.563,0,0,0,19.875,11.875Z"/>
</svg>
