<svg xmlns="http://www.w3.org/2000/svg" width="32" height="32" viewBox="0 0 32 32">
  <path id="_001-grinning" data-name="001-grinning" d="M16,32A16,16,0,0,1,4.686,4.686,16.021,16.021,0,0,1,21.288.895a1.25,1.25,0,1,1-.826,2.36A13.5,13.5,0,1,0,29.5,16a13.616,13.616,0,0,0-.256-2.633,1.25,1.25,0,0,1,2.453-.485A16.119,16.119,0,0,1,32,16,16,16,0,0,1,16,32Zm6.153-9.476a2.764,2.764,0,0,0,.056-2.83,2.821,2.821,0,0,0-2.459-1.444h-7.5a2.821,2.821,0,0,0-2.459,1.444,2.764,2.764,0,0,0,.056,2.83A6.783,6.783,0,0,0,16,25.75a6.783,6.783,0,0,0,6.153-3.226Zm-2.4-1.774a.308.308,0,0,1,.277.164.284.284,0,0,1,0,.3A4.383,4.383,0,0,1,16,23.25a4.383,4.383,0,0,1-4.023-2.035.284.284,0,0,1,0-.3.308.308,0,0,1,.277-.164ZM32,5.735c0-.414,0-1.675-2.456-4.8a2.44,2.44,0,0,0-3.838,0C23.25,4.06,23.25,5.321,23.25,5.735a4.375,4.375,0,1,0,8.75,0Zm-2.5,0a1.875,1.875,0,1,1-3.75,0c0-.278.393-1.3,1.875-3.2C29.106,4.434,29.5,5.458,29.5,5.735ZM22.189,16a1.253,1.253,0,0,1-.27-.03,8.752,8.752,0,0,1-2.858-1.229,2.742,2.742,0,0,1,.043-4.626A10.692,10.692,0,0,1,21.85,8.921a1.25,1.25,0,0,1,.675,2.407,8.194,8.194,0,0,0-2.1.913.242.242,0,0,0,0,.4,6.273,6.273,0,0,0,2.039.887A1.25,1.25,0,0,1,22.189,16ZM9.811,16a1.25,1.25,0,0,1-.267-2.471,6.27,6.27,0,0,0,2.039-.887.242.242,0,0,0,0-.4,8.193,8.193,0,0,0-2.1-.913,1.25,1.25,0,1,1,.675-2.407A10.692,10.692,0,0,1,12.9,10.116a2.742,2.742,0,0,1,.044,4.626,8.753,8.753,0,0,1-2.858,1.229,1.25,1.25,0,0,1-.27.03Z"/>
</svg>
