<svg xmlns="http://www.w3.org/2000/svg" width="32" height="32" viewBox="0 0 32 32">
  <path id="_039-monocle" data-name="039-monocle" d="M16,32A16,16,0,0,1,4.686,4.686,16.007,16.007,0,0,1,24.148,2.227a16.085,16.085,0,0,1,5.75,5.84,1.25,1.25,0,1,1-2.17,1.241,13.5,13.5,0,1,0-2.734,16.76,1.25,1.25,0,0,1,1.666,1.864A15.973,15.973,0,0,1,16,32Zm3.608-10.954a1.25,1.25,0,0,0-1.687-.528A4.629,4.629,0,0,1,15.812,21a5.591,5.591,0,0,1-4.2-2.421,1.249,1.249,0,1,0-2.107,1.341c.235.357,2.463,3.579,6.3,3.579a7.067,7.067,0,0,0,3.267-.767A1.25,1.25,0,0,0,19.608,21.046Zm-7.545-9.108A1.563,1.563,0,1,1,10.5,10.375,1.563,1.563,0,0,1,12.062,11.937ZM30.437,28.875A1.563,1.563,0,1,0,32,30.437,1.563,1.563,0,0,0,30.437,28.875Zm0-4.687A1.563,1.563,0,1,0,32,25.75,1.563,1.563,0,0,0,30.437,24.187Zm0-4.875A1.563,1.563,0,1,0,32,20.875,1.563,1.563,0,0,0,30.437,19.312Zm-4.251-4.868a5.844,5.844,0,1,1,.088-2.556,7.5,7.5,0,0,1,2.29.889,7.856,7.856,0,0,1,2.846,3.062,1.25,1.25,0,1,1-2.2,1.2,4.958,4.958,0,0,0-3.029-2.592Zm-2.311-1.475a3.344,3.344,0,1,0-3.344,3.344A3.348,3.348,0,0,0,23.875,12.969Z"/>
</svg>
