<svg xmlns="http://www.w3.org/2000/svg" width="32.001" height="32" viewBox="0 0 32.001 32">
  <path id="_013-sleeping" data-name="013-sleeping" d="M16,32.008A16,16,0,0,1,11.8.566a1.25,1.25,0,0,1,.655,2.413A13.5,13.5,0,1,0,29.5,16.008a1.25,1.25,0,0,1,2.5,0,16,16,0,0,1-16,16ZM22.25,6.633A1.25,1.25,0,0,0,21,5.383H19.154S21.5,3.658,21.525,3.638a2.043,2.043,0,0,0,.6-2.28A2.047,2.047,0,0,0,20.183.008H17a1.25,1.25,0,1,0,0,2.5h1.846S16.5,4.233,16.474,4.253a2.062,2.062,0,0,0,1.342,3.63H21a1.25,1.25,0,0,0,1.25-1.25Zm-2.5,16A3.75,3.75,0,1,0,16,26.383,3.754,3.754,0,0,0,19.75,22.633Zm-2.5,0A1.25,1.25,0,1,1,16,21.383,1.251,1.251,0,0,1,17.25,22.633ZM32,11.258a1.25,1.25,0,0,0-1.25-1.25H26.682s4.46-3.286,4.483-3.306a2.384,2.384,0,0,0-1.551-4.194H25.187a1.25,1.25,0,1,0,0,2.5h4.068S24.8,8.294,24.772,8.314a2.384,2.384,0,0,0,1.551,4.194H30.75A1.25,1.25,0,0,0,32,11.258Zm-20.717,5a5.7,5.7,0,0,1-3.709-1.04,1.25,1.25,0,0,1,1.6-1.921,3.777,3.777,0,0,0,2.189.46h1.7a1.25,1.25,0,1,1,0,2.5H11.283Zm13.041-.947A1.25,1.25,0,0,0,22.8,13.33a3.805,3.805,0,0,1-2.335.428H18.874a1.25,1.25,0,0,0,0,2.5h0l1.865,0a5.9,5.9,0,0,0,3.584-.949Z" transform="translate(0 -0.008)"/>
</svg>
