<svg xmlns="http://www.w3.org/2000/svg" width="32" height="32" viewBox="0 0 32 32">
  <path id="_003-tongue" data-name="003-tongue" d="M16,32A16,16,0,0,1,4.686,4.686,16,16,0,0,1,27.314,27.314,15.9,15.9,0,0,1,16,32ZM16,2.5A13.5,13.5,0,1,0,29.5,16,13.515,13.515,0,0,0,16,2.5Zm7.579,18.074-.334-.658A2.685,2.685,0,0,0,19.1,19.1a4.763,4.763,0,0,1-3.159,1.28,5.5,5.5,0,0,1-4.2-2.421A1.25,1.25,0,0,0,9.633,19.3a8.036,8.036,0,0,0,6.3,3.579,7.286,7.286,0,0,0,4.8-1.891.166.166,0,0,1,.147-.038.187.187,0,0,1,.135.1l.342.674.018.034a1.517,1.517,0,0,1-1.836,2.158,1.25,1.25,0,1,0-.831,2.358,4.017,4.017,0,0,0,4.87-5.7ZM10.5,10.375a1.563,1.563,0,1,1-1.563,1.563A1.563,1.563,0,0,1,10.5,10.375Zm9.437,1.563A1.563,1.563,0,1,0,21.5,10.375,1.563,1.563,0,0,0,19.937,11.937Z"/>
</svg>
