<svg xmlns="http://www.w3.org/2000/svg" width="32" height="32" viewBox="0 0 32 32">
  <path id="_014-woozy" data-name="014-woozy" d="M16,32A16,16,0,0,1,4.686,4.686,16,16,0,0,1,27.314,27.314,15.9,15.9,0,0,1,16,32ZM16,2.5A13.5,13.5,0,1,0,29.5,16,13.515,13.515,0,0,0,16,2.5Zm8.687,18.125a1.25,1.25,0,0,0-2.5,0c0,.582-.156,1.25-1.375,1.25a2.767,2.767,0,0,1-1.307-.611A6.239,6.239,0,0,0,15.937,20a6.239,6.239,0,0,0-3.568,1.264,2.767,2.767,0,0,1-1.307.611c-1.219,0-1.375-.668-1.375-1.25a1.25,1.25,0,0,0-2.5,0,3.611,3.611,0,0,0,3.875,3.75,4.788,4.788,0,0,0,2.672-1.017,3.859,3.859,0,0,1,2.2-.858,3.859,3.859,0,0,1,2.2.858,4.788,4.788,0,0,0,2.672,1.017A3.611,3.611,0,0,0,24.687,20.625ZM11.346,15.938A5.7,5.7,0,0,1,7.637,14.9a1.25,1.25,0,0,1,1.6-1.921,3.779,3.779,0,0,0,2.189.46h1.7a1.25,1.25,0,0,1,0,2.5H11.346ZM22.125,14.32V10.937a1.25,1.25,0,0,0-2.5,0V14.32a1.25,1.25,0,0,0,2.5,0Z"/>
</svg>
