<svg xmlns="http://www.w3.org/2000/svg" width="32" height="32" viewBox="0 0 32 32">
  <path id="_017-horns" data-name="017-horns" d="M16,32A16.007,16.007,0,0,1,1.067,10.25,3.475,3.475,0,0,0,1.2,8.16L.087,3.644A2.937,2.937,0,0,1,3.665.1L8.081,1.222a3.487,3.487,0,0,0,2.134-.141,16.05,16.05,0,0,1,11.569,0,3.486,3.486,0,0,0,2.134.141L28.335.1a2.937,2.937,0,0,1,3.578,3.548L30.8,8.159a3.545,3.545,0,0,0,.144,2.123h0A16,16,0,0,1,16,32ZM2.932,2.5a.44.44,0,0,0-.418.543L3.626,7.562A5.963,5.963,0,0,1,3.4,11.15a13.5,13.5,0,1,0,25.212.027h0a6.032,6.032,0,0,1-.237-3.615l1.111-4.515a.438.438,0,0,0-.533-.528L24.537,3.644a5.973,5.973,0,0,1-3.656-.232,13.55,13.55,0,0,0-9.76,0,5.972,5.972,0,0,1-3.656.232L3.047,2.518A.464.464,0,0,0,2.932,2.5ZM21.859,19.51a1.25,1.25,0,0,0-1.726.383,5.5,5.5,0,0,1-4.2,2.421,5.5,5.5,0,0,1-4.2-2.421,1.25,1.25,0,0,0-2.109,1.342,8.036,8.036,0,0,0,6.3,3.579,8.036,8.036,0,0,0,6.3-3.579,1.25,1.25,0,0,0-.383-1.726ZM8.911,9.7a1.25,1.25,0,1,0-.322,2.479,3.831,3.831,0,0,1,2.068.768,1.562,1.562,0,0,0,.869,2.861c1.6,0,1.98-1.494,1.98-2.447a2.668,2.668,0,0,0-.788-1.9A6.223,6.223,0,0,0,8.911,9.7ZM24.49,10.779a1.25,1.25,0,0,0-1.4-1.079,6.222,6.222,0,0,0-3.807,1.762,2.668,2.668,0,0,0-.788,1.9,2.234,2.234,0,0,0,1.98,2.447,1.562,1.562,0,0,0,.869-2.861,3.831,3.831,0,0,1,2.068-.768,1.25,1.25,0,0,0,1.079-1.4Z" transform="translate(0 -0.002)"/>
</svg>
