<svg xmlns="http://www.w3.org/2000/svg" width="32" height="32" viewBox="0 0 32 32">
  <path id="_035-sad" data-name="035-sad" d="M16,32A16,16,0,0,1,4.686,4.686,16,16,0,0,1,27.314,27.314,15.9,15.9,0,0,1,16,32ZM16,2.5A13.5,13.5,0,1,0,29.5,16,13.515,13.515,0,0,0,16,2.5Zm6.242,19.641a8.036,8.036,0,0,0-6.3-3.579,8.036,8.036,0,0,0-6.3,3.579,1.25,1.25,0,0,0,2.109,1.342,5.5,5.5,0,0,1,4.2-2.421,5.5,5.5,0,0,1,4.2,2.421,1.25,1.25,0,0,0,2.109-1.342ZM20.6,15.812a2.732,2.732,0,0,1-2.653-3.348A10.6,10.6,0,0,1,19.038,9.7a1.25,1.25,0,0,1,2.178,1.227,8.1,8.1,0,0,0-.835,2.112.208.208,0,0,0,.061.2.219.219,0,0,0,.209.066A6.226,6.226,0,0,0,22.7,12.5a1.25,1.25,0,0,1,1.345,2.107,8.707,8.707,0,0,1-2.872,1.143,2.744,2.744,0,0,1-.575.061Zm-7.257-.822a2.706,2.706,0,0,0,.708-2.526A10.6,10.6,0,0,0,12.962,9.7a1.25,1.25,0,0,0-2.178,1.227,8.1,8.1,0,0,1,.835,2.112.208.208,0,0,1-.061.2.22.22,0,0,1-.209.066A6.227,6.227,0,0,1,9.3,12.5a1.25,1.25,0,0,0-1.345,2.107,8.707,8.707,0,0,0,2.872,1.143,2.714,2.714,0,0,0,2.519-.761Z"/>
</svg>
