<svg xmlns="http://www.w3.org/2000/svg" width="32" height="32" viewBox="0 0 32 32">
  <path id="_012-smirking" data-name="012-smirking" d="M16,32A16,16,0,0,1,4.686,4.686,16,16,0,0,1,27.314,27.314,15.9,15.9,0,0,1,16,32ZM16,2.5A13.5,13.5,0,1,0,29.5,16,13.515,13.515,0,0,0,16,2.5ZM13.943,25.187l3.282-.014A9.04,9.04,0,0,0,25.118,20.5a1.25,1.25,0,0,0-2.236-1.118,6.514,6.514,0,0,1-5.716,3.3l-3.233.013a1.25,1.25,0,0,0,.005,2.5Zm-.918-13.714a2.7,2.7,0,0,1,.787,2.025,1.562,1.562,0,1,1-3.1-.3,4.018,4.018,0,0,0-2.08.919,1.25,1.25,0,1,1-1.525-1.981,6.316,6.316,0,0,1,3.95-1.447,2.818,2.818,0,0,1,1.962.787Zm8.663-.786a6.315,6.315,0,0,0-3.95,1.447,1.25,1.25,0,1,0,1.525,1.981,4.019,4.019,0,0,1,2.08-.919,1.563,1.563,0,1,0,3.1.3,2.7,2.7,0,0,0-.787-2.025,2.818,2.818,0,0,0-1.962-.787Z"/>
</svg>
