<svg xmlns="http://www.w3.org/2000/svg" width="32" height="32" viewBox="0 0 32 32">
  <path id="_018-vomiting" data-name="018-vomiting" d="M20.136,22.864a5.59,5.59,0,0,0-4.2-2.426A5.039,5.039,0,0,0,12.4,22.07a1.608,1.608,0,0,0-.465,1.136V28.2A3.79,3.79,0,0,1,8.125,32a5.089,5.089,0,0,1-3.348-1.581A1.252,1.252,0,1,1,6.592,28.7a2.689,2.689,0,0,0,1.571.8,1.219,1.219,0,0,0,.876-.357,1.328,1.328,0,0,0,.4-.942V23.206a4.093,4.093,0,0,1,1.185-2.891,7.479,7.479,0,0,1,5.315-2.377,8.037,8.037,0,0,1,6.3,3.579h0a1.249,1.249,0,1,1-2.107,1.341h0ZM16,27.812h0a1.25,1.25,0,0,0-1.247,1.253l0,1.687A1.25,1.25,0,0,0,16,32h0a1.25,1.25,0,0,0,1.247-1.253l0-1.687A1.25,1.25,0,0,0,16,27.812ZM27.314,4.686A16,16,0,0,0,0,16a15.8,15.8,0,0,0,.924,5.334A16.136,16.136,0,0,0,3.456,25.9a1.25,1.25,0,1,0,1.963-1.548A13.375,13.375,0,0,1,2.5,16a13.5,13.5,0,1,1,27,0,13.371,13.371,0,0,1-2.8,8.237,1.25,1.25,0,1,0,1.98,1.527A16,16,0,0,0,27.314,4.686ZM25.282,28.705a2.688,2.688,0,0,1-1.59.795,1.252,1.252,0,0,1-1.25-1.252l0-1.062a1.25,1.25,0,0,0-1.25-1.248h0a1.25,1.25,0,0,0-1.248,1.252l0,1.061A3.754,3.754,0,0,0,23.691,32a5.142,5.142,0,0,0,3.41-1.58,1.25,1.25,0,0,0-1.819-1.715ZM23.408,14.331a1.25,1.25,0,0,0-.952-1.489,6.27,6.27,0,0,1-2.039-.887.242.242,0,0,1,0-.4,8.193,8.193,0,0,1,2.1-.913,1.25,1.25,0,0,0-.675-2.407A10.693,10.693,0,0,0,19.1,9.428a2.742,2.742,0,0,0-.044,4.626,8.752,8.752,0,0,0,2.858,1.228,1.248,1.248,0,0,0,1.489-.952Zm-13.6.982a1.25,1.25,0,0,1-.267-2.471,6.27,6.27,0,0,0,2.039-.887.228.228,0,0,0,.105-.2.226.226,0,0,0-.108-.2,8.192,8.192,0,0,0-2.1-.913,1.25,1.25,0,0,1,.675-2.407A10.691,10.691,0,0,1,12.9,9.428a2.742,2.742,0,0,1,.044,4.626,8.752,8.752,0,0,1-2.858,1.228,1.249,1.249,0,0,1-.27.03Z" transform="translate(0)"/>
</svg>
