<svg xmlns="http://www.w3.org/2000/svg" width="32" height="32" viewBox="0 0 32 32">
  <path id="_048-nausea" data-name="048-nausea" d="M16,32A16,16,0,0,1,4.686,4.686,16,16,0,0,1,27.314,27.314,15.9,15.9,0,0,1,16,32ZM16,2.5A13.5,13.5,0,1,0,29.5,16,13.515,13.515,0,0,0,16,2.5Zm7,16.313a1.248,1.248,0,0,0-1.385-1.242,4.608,4.608,0,0,0-3.036,1.74A9.761,9.761,0,0,0,16,18.937a9.76,9.76,0,0,0-2.58.373,4.608,4.608,0,0,0-3.036-1.741h0a1.266,1.266,0,0,0-.135-.007,1.25,1.25,0,0,0-.135,2.492h0a2.005,2.005,0,0,1,1.545,1.194,2.472,2.472,0,0,1-.583,2.159A1.249,1.249,0,0,0,12,25.5a1.261,1.261,0,0,0,.927-.412,5.218,5.218,0,0,0,1.323-3.413,6.553,6.553,0,0,1,3.5,0,5.218,5.218,0,0,0,1.326,3.417A1.25,1.25,0,1,0,20.92,23.4a2.46,2.46,0,0,1-.58-2.154,2,2,0,0,1,1.545-1.194h0A1.25,1.25,0,0,0,23,18.812ZM10.5,10.375a1.563,1.563,0,1,1-1.563,1.563A1.563,1.563,0,0,1,10.5,10.375Zm9.437,1.563A1.563,1.563,0,1,0,21.5,10.375,1.563,1.563,0,0,0,19.937,11.937Z"/>
</svg>
