<svg xmlns="http://www.w3.org/2000/svg" width="32" height="32" viewBox="0 0 32 32">
  <path id="_005-nerd" data-name="005-nerd" d="M16,32A16,16,0,0,1,.241,18.778,1.25,1.25,0,0,1,2.7,18.347a13.5,13.5,0,0,0,26.594,0,1.25,1.25,0,1,1,2.463.431A16,16,0,0,1,16,32ZM29.645,10.169a1.25,1.25,0,0,0,.524-1.688A15.931,15.931,0,0,0,16,0,15.931,15.931,0,0,0,1.831,8.481,1.25,1.25,0,0,0,4.044,9.644,13.438,13.438,0,0,1,16,2.5,13.438,13.438,0,0,1,27.956,9.644a1.249,1.249,0,0,0,1.688.524ZM20.1,23a1.25,1.25,0,1,0-.767-2.379,10.252,10.252,0,0,1-6.709.008,1.25,1.25,0,0,0-.815,2.363,12.492,12.492,0,0,0,4.095.692A13.625,13.625,0,0,0,20.1,23ZM30.75,12.5H26.569a5,5,0,0,0-9.421-.758A1.258,1.258,0,0,1,16,12.5h-.084a1.235,1.235,0,0,1-1.139-.736,5,5,0,0,0-9.434.736H1.25a1.25,1.25,0,1,0,0,2.5h4.1a5.014,5.014,0,0,0,4.622,3.745q.111,0,.222,0a5.084,5.084,0,0,0,2.028-.417,1.25,1.25,0,0,0-1-2.291,2.632,2.632,0,0,1-1.142.205A2.513,2.513,0,0,1,7.69,13.871a2.5,2.5,0,0,1,4.793-1.113A3.733,3.733,0,0,0,15.916,15H16a3.758,3.758,0,0,0,3.438-2.253,2.489,2.489,0,0,1,2.411-1.494,2.514,2.514,0,0,1,2.378,2.378,2.5,2.5,0,0,1-2.5,2.62,2.527,2.527,0,0,1-1.134-.266,1.25,1.25,0,0,0-1.127,2.232,5.04,5.04,0,0,0,2.261.534A5.007,5.007,0,0,0,26.572,15H30.75a1.25,1.25,0,0,0,0-2.5Z"/>
</svg>
