<svg xmlns="http://www.w3.org/2000/svg" width="32" height="32" viewBox="0 0 32 32">
  <path id="_044-displeased" data-name="044-displeased" d="M16,32A16,16,0,0,1,4.686,4.686,16,16,0,0,1,27.314,27.314,15.9,15.9,0,0,1,16,32ZM16,2.5A13.5,13.5,0,1,0,29.5,16,13.515,13.515,0,0,0,16,2.5Zm5.431,22.119a1.25,1.25,0,0,0,.563-1.676,8.028,8.028,0,0,0-7.006-4.193H11.5a1.25,1.25,0,1,0,0,2.5h3.432a5.5,5.5,0,0,1,4.824,2.806,1.249,1.249,0,0,0,1.676.563ZM13.087,11.351a2.7,2.7,0,0,1,.787,2.025,1.562,1.562,0,1,1-3.1-.3,4.018,4.018,0,0,0-2.08.919A1.25,1.25,0,1,1,7.175,12.01a6.316,6.316,0,0,1,3.95-1.447A2.819,2.819,0,0,1,13.087,11.351Zm8.663-.786a6.315,6.315,0,0,0-3.95,1.447,1.25,1.25,0,1,0,1.525,1.981,4.019,4.019,0,0,1,2.08-.919,1.563,1.563,0,1,0,3.1.3,2.7,2.7,0,0,0-.787-2.025,2.818,2.818,0,0,0-1.962-.787Z"/>
</svg>
