<svg xmlns="http://www.w3.org/2000/svg" width="32" height="32" viewBox="0 0 32 32">
  <path id="_038-cowardly" data-name="038-cowardly" d="M16,32A16,16,0,0,1,4.686,4.686,16,16,0,0,1,27.314,27.314,15.9,15.9,0,0,1,16,32ZM16,2.5A13.5,13.5,0,1,0,29.5,16,13.515,13.515,0,0,0,16,2.5Zm3.75,23.25h-7.5a2.821,2.821,0,0,1-2.459-1.444,2.764,2.764,0,0,1,.056-2.83A6.783,6.783,0,0,1,16,18.25a6.783,6.783,0,0,1,6.153,3.226,2.763,2.763,0,0,1,.056,2.83,2.821,2.821,0,0,1-2.459,1.444Zm-3.75-5a4.383,4.383,0,0,0-4.023,2.035.284.284,0,0,0,0,.3.308.308,0,0,0,.277.164h7.5a.308.308,0,0,0,.277-.164.284.284,0,0,0,0-.3A4.383,4.383,0,0,0,16,20.75Zm-5.5-4.5a3.75,3.75,0,1,1,3.75-3.75A3.754,3.754,0,0,1,10.5,16.25Zm0-5a1.25,1.25,0,1,0,1.25,1.25A1.251,1.251,0,0,0,10.5,11.25Zm11,5a3.75,3.75,0,1,1,3.75-3.75A3.754,3.754,0,0,1,21.5,16.25Zm0-5a1.25,1.25,0,1,0,1.25,1.25A1.251,1.251,0,0,0,21.5,11.25Z"/>
</svg>
