<svg xmlns="http://www.w3.org/2000/svg" width="32.003" height="32" viewBox="0 0 32.003 32">
  <path id="_045-party" data-name="045-party" d="M16,32.022a15.937,15.937,0,0,1-9.967-3.483,1.25,1.25,0,1,1,1.558-1.955A13.355,13.355,0,0,0,16,29.522a13.515,13.515,0,0,0,13.5-13.5,1.25,1.25,0,0,1,2.5,0,16,16,0,0,1-16,16ZM2.656,13.961A13.582,13.582,0,0,1,16,2.522a1.25,1.25,0,0,0,0-2.5A16,16,0,0,0,.185,13.583a1.25,1.25,0,1,0,2.471.378Zm25.552-.971A3.38,3.38,0,0,0,30.2,10.662L31.916,3.68A2.938,2.938,0,0,0,28.337.132h0L21.472,1.883A3.407,3.407,0,0,0,19.438,7.01a17.727,17.727,0,0,0,5.729,5.777,3.367,3.367,0,0,0,3.042.2Zm.747-10.436a.438.438,0,0,1,.533.529L27.77,10.064a.9.9,0,0,1-.531.621.888.888,0,0,1-.8-.053A15.232,15.232,0,0,1,21.55,5.673a.908.908,0,0,1,.54-1.367ZM16,22.9a1.25,1.25,0,0,0-1.25-1.25l-11,0a1.25,1.25,0,0,1,0-2.5,1.286,1.286,0,0,1,.875.393,1.25,1.25,0,1,0,1.75-1.785A3.749,3.749,0,0,0,3.75,16.647a3.75,3.75,0,0,0,0,7.5l11,0h0A1.25,1.25,0,0,0,16,22.9ZM8.376,16.522a1.25,1.25,0,0,1-.806-2.206,5.823,5.823,0,0,1,3.81-1.544h1.683a1.25,1.25,0,0,1,0,2.5H11.345a3.455,3.455,0,0,0-2.165.957A1.245,1.245,0,0,1,8.376,16.522Zm15.186-.062a1.244,1.244,0,0,1-.762-.26,3.782,3.782,0,0,0-2.335-.927H18.874a1.25,1.25,0,0,1,0-2.5h1.55a6.191,6.191,0,0,1,3.9,1.446,1.25,1.25,0,0,1-.764,2.24ZM0,1.584A1.562,1.562,0,1,0,1.563.022,1.563,1.563,0,0,0,0,1.584Zm21.25,21a1.563,1.563,0,1,0,1.563-1.562A1.563,1.563,0,0,0,21.25,22.584Zm7.625,6.562a1.562,1.562,0,1,0,1.562-1.562,1.563,1.563,0,0,0-1.562,1.563Z" transform="translate(0 -0.022)"/>
</svg>
