<svg xmlns="http://www.w3.org/2000/svg" width="32" height="32" viewBox="0 0 32 32">
  <path id="_024-flushed" data-name="024-flushed" d="M16,32A16,16,0,0,1,4.686,4.686,16,16,0,0,1,27.314,27.314,15.9,15.9,0,0,1,16,32ZM16,2.5A13.5,13.5,0,1,0,29.5,16,13.515,13.515,0,0,0,16,2.5Zm5,18.883a1.25,1.25,0,0,0-1.25-1.25h-7.5a1.25,1.25,0,1,0,0,2.5h7.5A1.25,1.25,0,0,0,21,21.383ZM10.5,17.5a3.75,3.75,0,1,1,3.75-3.75A3.754,3.754,0,0,1,10.5,17.5Zm0-5a1.25,1.25,0,1,0,1.25,1.25A1.251,1.251,0,0,0,10.5,12.5Zm11,5a3.75,3.75,0,1,1,3.75-3.75A3.754,3.754,0,0,1,21.5,17.5Zm0-5a1.25,1.25,0,1,0,1.25,1.25A1.251,1.251,0,0,0,21.5,12.5Z"/>
</svg>
