<svg xmlns="http://www.w3.org/2000/svg" width="32" height="32" viewBox="0 0 32 32">
  <g id="_007-kiss" data-name="007-kiss" transform="translate(0 -0.001)">
    <g id="Group_8" data-name="Group 8" transform="translate(0 0.001)">
      <path id="Path_3" data-name="Path 3" d="M16,32A16,16,0,0,1,4.686,4.687a16,16,0,0,1,27.2,9.417,1.25,1.25,0,1,1-2.483.293,13.5,13.5,0,1,0-6.828,13.4,1.25,1.25,0,1,1,1.22,2.182A16.012,16.012,0,0,1,16,32Z" transform="translate(0 -0.001)"/>
      <path id="Path_4" data-name="Path 4" d="M216.375,283.606a3.435,3.435,0,0,0-.319-1.464.837.837,0,0,1,.024-.683,3.518,3.518,0,0,0,.3-1.454,3.043,3.043,0,0,0-3.045-3h-2.08a1.25,1.25,0,1,0,0,2.5h2.08a.537.537,0,0,1,.545.522,1.02,1.02,0,0,1-.083.427,3.332,3.332,0,0,0-.005,2.742.941.941,0,0,1,.088.406.54.54,0,0,1-.548.528H211.25a1.25,1.25,0,1,0,0,2.5h2.077A3.045,3.045,0,0,0,216.375,283.606Z" transform="translate(-196.875 -259.688)"/>
    </g>
    <path id="Path_5" data-name="Path 5" d="M288.936,177.687a1.25,1.25,0,0,0,.764-2.24A6.18,6.18,0,0,0,285.8,174h-1.55a1.25,1.25,0,0,0,0,2.5h1.591a3.771,3.771,0,0,1,2.335.928A1.245,1.245,0,0,0,288.936,177.687Z" transform="translate(-265.312 -163.123)"/>
    <circle id="Ellipse_7" data-name="Ellipse 7" cx="1.563" cy="1.563" r="1.563" transform="translate(9 11.001)"/>
    <path id="Path_6" data-name="Path 6" d="M350,329.965C350,329.956,350,329.973,350,329.965Z" transform="translate(-328.124 -309.339)"/>
    <path id="Path_7" data-name="Path 7" d="M356.969,279a3.186,3.186,0,0,0-1.906.618,3.179,3.179,0,0,0-5.062,2.57,7.107,7.107,0,0,0,3.206,5.44,3.093,3.093,0,0,0,3.712,0,7.107,7.107,0,0,0,3.206-5.44A3.179,3.179,0,0,0,356.969,279Zm-1.557,6.633a.583.583,0,0,1-.7,0,4.869,4.869,0,0,1-2.213-3.465.668.668,0,0,1,.656-.668.62.62,0,0,1,.656.625,1.25,1.25,0,0,0,2.5,0,.62.62,0,0,1,.656-.625.668.668,0,0,1,.656.668A4.869,4.869,0,0,1,355.412,285.634Z" transform="translate(-328.125 -261.563)"/>
    <path id="Path_8" data-name="Path 8" d="M512,329.965C512,329.973,512,329.956,512,329.965Z" transform="translate(-480 -309.339)"/>
  </g>
</svg>
