<svg xmlns="http://www.w3.org/2000/svg" width="31.995" height="32" viewBox="0 0 31.995 32">
  <path id="_009-joy" data-name="009-joy" d="M16.036,25.75a6.783,6.783,0,0,1-6.153-3.226,2.764,2.764,0,0,1-.056-2.83,2.821,2.821,0,0,1,2.459-1.444h7.5a2.821,2.821,0,0,1,2.459,1.444,2.764,2.764,0,0,1-.056,2.83A6.784,6.784,0,0,1,16.036,25.75Zm-3.75-5a.308.308,0,0,0-.277.164.284.284,0,0,0,0,.3,4.383,4.383,0,0,0,4.023,2.035,4.383,4.383,0,0,0,4.023-2.035.284.284,0,0,0,0-.3.308.308,0,0,0-.277-.164ZM28.279,23a3.789,3.789,0,0,1-2.686-1.113c-.436-.436-1.057-1.355-1.415-4.284a2.206,2.206,0,0,1,2.459-2.459c2.93.358,3.848.979,4.284,1.415a3.783,3.783,0,0,1,.016,5.344A3.745,3.745,0,0,1,28.279,23Zm-.915-2.877a1.268,1.268,0,1,0,1.793-1.793,5.8,5.8,0,0,0-2.448-.656,5.8,5.8,0,0,0,.656,2.448ZM22.487,30.646a15.942,15.942,0,0,0,5.2-3.675,1.25,1.25,0,0,0-1.82-1.714,13.5,13.5,0,0,1-19.655,0,1.25,1.25,0,0,0-1.82,1.714,16.014,16.014,0,0,0,18.1,3.675Zm8.16-17.034a1.25,1.25,0,0,0,.908-1.517,16.084,16.084,0,0,0-5.6-8.654,16,16,0,0,0-19.831,0A16.084,16.084,0,0,0,.516,12.1a1.25,1.25,0,1,0,2.425.608,13.5,13.5,0,0,1,26.19,0,1.249,1.249,0,0,0,1.517.908ZM3.793,23a3.745,3.745,0,0,1-2.658-1.1,3.783,3.783,0,0,1,.016-5.344c.436-.436,1.355-1.057,4.284-1.415A2.206,2.206,0,0,1,7.894,17.6c-.358,2.93-.979,3.848-1.415,4.284A3.789,3.789,0,0,1,3.793,23Zm-.877-4.67A1.268,1.268,0,1,0,4.708,20.12a5.8,5.8,0,0,0,.656-2.448,5.8,5.8,0,0,0-2.448.656Zm5.5-4.64a1.25,1.25,0,0,1-.806-2.206,5.824,5.824,0,0,1,3.81-1.544H13.1a1.25,1.25,0,1,1,0,2.5H11.379a3.409,3.409,0,0,0-2.164.957,1.245,1.245,0,0,1-.8.294Zm16.177-.55a1.25,1.25,0,0,0-.228-1.753,6.186,6.186,0,0,0-3.9-1.446h-1.55a1.25,1.25,0,0,0,0,2.5H20.5a3.776,3.776,0,0,1,2.335.927,1.25,1.25,0,0,0,1.753-.228Z" transform="translate(-0.038)"/>
</svg>
