<svg xmlns="http://www.w3.org/2000/svg" width="32" height="32" viewBox="0 0 32 32">
  <path id="_041-angry" data-name="041-angry" d="M16,32A16,16,0,0,1,4.686,4.686,16.015,16.015,0,0,1,22.378,1.322a1.25,1.25,0,1,1-1,2.292A13.5,13.5,0,1,0,29.5,16a14.152,14.152,0,0,0-.127-1.892,1.25,1.25,0,1,1,2.477-.341A16.685,16.685,0,0,1,32,16,16,16,0,0,1,16,32Zm6.209-7.694a2.764,2.764,0,0,0-.056-2.83A6.783,6.783,0,0,0,16,18.25a6.783,6.783,0,0,0-6.153,3.226,2.764,2.764,0,0,0-.056,2.83A2.821,2.821,0,0,0,12.25,25.75h7.5A2.821,2.821,0,0,0,22.209,24.306Zm-2.186-1.521a.284.284,0,0,1,0,.3.308.308,0,0,1-.277.164h-7.5a.308.308,0,0,1-.277-.164.284.284,0,0,1,0-.3A4.383,4.383,0,0,1,16,20.75,4.383,4.383,0,0,1,20.023,22.785Zm7.358-10.772a1.25,1.25,0,0,1-.87-2.147L29.08,7.375H26.966a2.215,2.215,0,0,1-1.542-3.8L28.611.478a1.25,1.25,0,1,1,1.741,1.794l-2.682,2.6h2.114a2.215,2.215,0,0,1,1.547,3.8l-3.08,2.987A1.246,1.246,0,0,1,27.381,12.014ZM24.49,10.777a1.25,1.25,0,0,0-1.4-1.079,6.222,6.222,0,0,0-3.807,1.762,2.668,2.668,0,0,0-.788,1.9c0,1.331.613,2.447,1.98,2.447a1.563,1.563,0,0,0,.869-2.861,3.831,3.831,0,0,1,2.068-.768,1.25,1.25,0,0,0,1.079-1.4ZM8.911,9.7a1.25,1.25,0,1,0-.322,2.479,3.831,3.831,0,0,1,2.068.768,1.563,1.563,0,0,0,.869,2.861c1.223,0,1.98-1.014,1.98-2.447a2.669,2.669,0,0,0-.788-1.9A6.221,6.221,0,0,0,8.911,9.7Z"/>
</svg>
