<svg xmlns="http://www.w3.org/2000/svg" width="32" height="32" viewBox="0 0 32 32">
  <path id="_027-grimacing" data-name="027-grimacing" d="M16,32A16,16,0,0,1,4.686,4.686,16,16,0,0,1,27.314,27.314,15.9,15.9,0,0,1,16,32ZM16,2.5A13.5,13.5,0,1,0,29.5,16,13.515,13.515,0,0,0,16,2.5Zm7.193,18.441a14.019,14.019,0,0,1,.729-1.479.814.814,0,0,1,.515.756,1.25,1.25,0,0,0,2.5,0,3.316,3.316,0,0,0-3.312-3.312c-1.286,0-1.967,1.351-2.593,2.744-.718-1.537-1.293-2.744-2.469-2.744a2.019,2.019,0,0,0-1.656,1.2c-.23.4-.451.907-.666,1.4-.058.133-.127.29-.2.452-.092-.192-.179-.381-.252-.538-.65-1.4-1.163-2.514-2.288-2.514s-1.653,1.1-2.381,2.614l-.136.282-.03-.068a15.611,15.611,0,0,0-.746-1.549,2.215,2.215,0,0,0-1.77-1.279,3.316,3.316,0,0,0-3.313,3.313,1.25,1.25,0,0,0,2.5,0,.814.814,0,0,1,.452-.728c.19.34.428.884.587,1.248.218.5.424.967.645,1.356a1.979,1.979,0,0,0,1.629,1.187,2.1,2.1,0,0,0,1.685-1.222c.254-.421.506-.947.751-1.457l.106-.22.041.088c.7,1.509,1.3,2.811,2.543,2.811A2.173,2.173,0,0,0,17.8,22.022a15.624,15.624,0,0,0,.727-1.511l.07-.158c.069.145.133.283.189.4.685,1.467,1.18,2.526,2.274,2.526s1.548-1.033,2.131-2.34ZM10.5,10.281a1.563,1.563,0,1,1-1.563,1.563A1.563,1.563,0,0,1,10.5,10.281Zm9.375,1.563a1.563,1.563,0,1,0,1.563-1.562A1.563,1.563,0,0,0,19.875,11.844Z"/>
</svg>
