<svg xmlns="http://www.w3.org/2000/svg" width="32" height="32" viewBox="0 0 32 32">
  <path id="_047-stars" data-name="047-stars" d="M16,32A16,16,0,0,1,0,16a1.25,1.25,0,0,1,2.5,0,13.5,13.5,0,1,0,27,0A1.25,1.25,0,0,1,32,16,16,16,0,0,1,16,32ZM21.445,2.23A1.25,1.25,0,0,0,20.608.674a16.092,16.092,0,0,0-9.206,0,1.25,1.25,0,0,0,.718,2.395,13.592,13.592,0,0,1,7.77,0,1.249,1.249,0,0,0,1.557-.838Zm.707,20.293a2.763,2.763,0,0,0,.056-2.83,2.821,2.821,0,0,0-2.459-1.444h-7.5a2.821,2.821,0,0,0-2.459,1.444,2.764,2.764,0,0,0,.056,2.83A6.783,6.783,0,0,0,16,25.75a6.783,6.783,0,0,0,6.153-3.226Zm-2.4-1.774a.308.308,0,0,1,.277.164.283.283,0,0,1,0,.3A4.383,4.383,0,0,1,16,23.25a4.383,4.383,0,0,1-4.023-2.035.284.284,0,0,1,0-.3.308.308,0,0,1,.277-.164Zm5.967-4.562a2.352,2.352,0,0,1-1.092-.27l-1.246-.652-1.246.652a2.346,2.346,0,0,1-3.4-2.471l.237-1.374-1-.974a2.341,2.341,0,0,1,1.3-4l1.392-.2.621-1.253a2.349,2.349,0,0,1,4.207,0L26.1,6.9l1.392.2a2.341,2.341,0,0,1,1.3,4l-1,.974.237,1.374a2.349,2.349,0,0,1-2.311,2.741Zm-2.338-3.442a2.35,2.35,0,0,1,1.09.268l1.042.545-.2-1.146a2.338,2.338,0,0,1,.677-2.076l.831-.807-1.154-.167A2.346,2.346,0,0,1,23.9,8.084l-.521-1.052-.521,1.052A2.347,2.347,0,0,1,21.09,9.363l-1.154.167.831.807a2.338,2.338,0,0,1,.677,2.076l-.2,1.146,1.042-.545a2.349,2.349,0,0,1,1.09-.268Zm2.761-5.772h0Zm-2.9-.216h0ZM10.96,16.188a2.352,2.352,0,0,1-1.092-.27l-1.246-.652-1.246.652a2.346,2.346,0,0,1-3.4-2.471l.237-1.374-1-.974a2.341,2.341,0,0,1,1.3-4L5.9,6.9l.621-1.253a2.349,2.349,0,0,1,4.207,0L11.347,6.9l1.391.2a2.341,2.341,0,0,1,1.3,4l-1,.974.237,1.374a2.349,2.349,0,0,1-2.311,2.741ZM8.622,12.746a2.35,2.35,0,0,1,1.09.268l1.041.545-.2-1.146a2.338,2.338,0,0,1,.677-2.076l.831-.807L10.91,9.363A2.346,2.346,0,0,1,9.143,8.084L8.622,7.032,8.1,8.084A2.347,2.347,0,0,1,6.334,9.363L5.18,9.53l.831.807a2.338,2.338,0,0,1,.677,2.076l-.2,1.146,1.042-.545A2.349,2.349,0,0,1,8.622,12.746Zm.136-5.988h0Z"/>
</svg>
