<svg xmlns="http://www.w3.org/2000/svg" width="32" height="32" viewBox="0 0 32 32">
  <path id="_015-astonished" data-name="015-astonished" d="M16,32A16,16,0,0,1,4.686,4.686,16,16,0,0,1,27.314,27.314,15.9,15.9,0,0,1,16,32ZM16,2.5A13.5,13.5,0,1,0,29.5,16,13.515,13.515,0,0,0,16,2.5Zm-.062,24.563A3.4,3.4,0,0,1,12.9,25.032a6.741,6.741,0,0,1-.708-2.969,6.85,6.85,0,0,1,.674-2.958,3.337,3.337,0,0,1,6.151,0,6.85,6.85,0,0,1,.674,2.958,6.741,6.741,0,0,1-.708,2.969,3.4,3.4,0,0,1-3.042,2.031Zm0-7.5c-.883,0-1.25,1.628-1.25,2.5s.429,2.5,1.25,2.5,1.25-1.628,1.25-2.5S16.821,19.562,15.937,19.562ZM10.5,16.25a3.75,3.75,0,1,1,3.75-3.75A3.754,3.754,0,0,1,10.5,16.25Zm0-5a1.25,1.25,0,1,0,1.25,1.25A1.251,1.251,0,0,0,10.5,11.25Zm11,5a3.75,3.75,0,1,1,3.75-3.75A3.754,3.754,0,0,1,21.5,16.25Zm0-5a1.25,1.25,0,1,0,1.25,1.25A1.251,1.251,0,0,0,21.5,11.25Z"/>
</svg>
