<svg xmlns="http://www.w3.org/2000/svg" width="32" height="32" viewBox="0 0 32 32">
  <path id="_033-moustache" data-name="033-moustache" d="M16,32A16,16,0,0,1,4.686,4.686,16,16,0,0,1,27.314,27.314,15.9,15.9,0,0,1,16,32ZM16,2.5A13.5,13.5,0,1,0,29.5,16,13.515,13.515,0,0,0,16,2.5ZM26.185,20.915a2.343,2.343,0,0,0,.028-2.509,1.25,1.25,0,0,0-2.253,1.046,4.064,4.064,0,0,1-1.621-1.125,5.055,5.055,0,0,0-3.135-1.69A4.225,4.225,0,0,0,16,17.8a4.223,4.223,0,0,0-3.2-1.163A4.821,4.821,0,0,0,9.7,18.342a3.763,3.763,0,0,1-1.538,1.106A1.25,1.25,0,0,0,5.914,18.4a2.361,2.361,0,0,0,2.3,3.576,5.467,5.467,0,0,0,3.24-1.851c.629-.616,1.009-.966,1.508-1a1.72,1.72,0,0,1,1.317.482,2.831,2.831,0,0,0,1.72.764,2.824,2.824,0,0,0,1.72-.761,1.72,1.72,0,0,1,1.317-.482c.514.034.94.41,1.592,1.021a5.738,5.738,0,0,0,3.282,1.83,2.42,2.42,0,0,0,.294.018A2.341,2.341,0,0,0,26.185,20.915ZM10.5,10.375a1.563,1.563,0,1,1-1.563,1.563A1.563,1.563,0,0,1,10.5,10.375Zm9.437,1.563A1.563,1.563,0,1,0,21.5,10.375,1.563,1.563,0,0,0,19.937,11.937Z"/>
</svg>
