<svg xmlns="http://www.w3.org/2000/svg" width="32" height="32" viewBox="0 0 32 32">
  <path id="_030-hearts" data-name="030-hearts" d="M16,32a16.051,16.051,0,0,1-4.067-.522,1.25,1.25,0,1,1,.634-2.418A13.512,13.512,0,0,0,28.982,12.281a1.25,1.25,0,1,1,2.4-.687A16,16,0,0,1,16,32ZM1.984,20.776A1.25,1.25,0,0,0,2.9,19.262,13.513,13.513,0,0,1,18.347,2.7,1.25,1.25,0,0,0,18.778.241,16.145,16.145,0,0,0,16,0,16,16,0,0,0,0,16a16.062,16.062,0,0,0,.47,3.863,1.249,1.249,0,0,0,1.514.912Zm20.258-.23a8.036,8.036,0,0,1-6.3,3.579,8.036,8.036,0,0,1-6.3-3.579A1.25,1.25,0,0,1,11.742,19.2a5.5,5.5,0,0,0,4.2,2.421,5.5,5.5,0,0,0,4.2-2.421,1.25,1.25,0,0,1,2.109,1.342ZM28.844,0a3.186,3.186,0,0,0-1.906.618,3.179,3.179,0,0,0-5.062,2.57,7.107,7.107,0,0,0,3.206,5.44,3.093,3.093,0,0,0,3.712,0A7.107,7.107,0,0,0,32,3.187,3.179,3.179,0,0,0,28.844,0ZM27.287,6.633a.583.583,0,0,1-.7,0,4.869,4.869,0,0,1-2.213-3.465.668.668,0,0,1,.656-.668.62.62,0,0,1,.656.625,1.25,1.25,0,0,0,2.5,0,.62.62,0,0,1,.656-.625.668.668,0,0,1,.656.668A4.869,4.869,0,0,1,27.287,6.633ZM6.969,22.75a3.13,3.13,0,0,0-1.906.646,3.13,3.13,0,0,0-1.906-.646A3.171,3.171,0,0,0,0,25.928c0,.008,0,.017,0,.025a7.079,7.079,0,0,0,3.206,5.424,3.093,3.093,0,0,0,3.713,0,7.079,7.079,0,0,0,3.206-5.424c0-.008,0-.017,0-.025A3.171,3.171,0,0,0,6.969,22.75ZM5.412,29.383a.583.583,0,0,1-.7,0A4.869,4.869,0,0,1,2.5,25.918a.656.656,0,1,1,1.312,0,1.25,1.25,0,0,0,2.5,0,.656.656,0,1,1,1.312,0A4.869,4.869,0,0,1,5.412,29.383Zm7.713-17.945H11.406a5.849,5.849,0,0,0-3.774,1.544,1.25,1.25,0,1,0,1.61,1.913,3.409,3.409,0,0,1,2.164-.957h1.719a1.25,1.25,0,1,0,0-2.5Zm11.263,1.447a6.187,6.187,0,0,0-3.9-1.446h-1.55a1.25,1.25,0,0,0,0,2.5h1.591a3.78,3.78,0,0,1,2.335.927,1.25,1.25,0,0,0,1.525-1.981Z"/>
</svg>
