<svg xmlns="http://www.w3.org/2000/svg" width="32" height="32" viewBox="0 0 32 32">
  <path id="_050-tired" data-name="050-tired" d="M16,32A16,16,0,0,1,4.686,4.686,16,16,0,0,1,27.314,27.314,15.9,15.9,0,0,1,16,32ZM16,2.5A13.5,13.5,0,1,0,29.5,16,13.515,13.515,0,0,0,16,2.5Zm3.75,22.625h-7.5a2.821,2.821,0,0,1-2.459-1.444,2.764,2.764,0,0,1,.056-2.83A6.783,6.783,0,0,1,16,17.625a6.783,6.783,0,0,1,6.153,3.226,2.763,2.763,0,0,1,.056,2.83,2.821,2.821,0,0,1-2.459,1.444Zm-3.75-5a4.383,4.383,0,0,0-4.023,2.035.284.284,0,0,0,0,.3.308.308,0,0,0,.277.164h7.5a.308.308,0,0,0,.277-.164.284.284,0,0,0,0-.3A4.383,4.383,0,0,0,16,20.125Zm6.189-3.562a1.252,1.252,0,0,1-.27-.029A8.754,8.754,0,0,1,19.061,15.3a2.742,2.742,0,0,1,.044-4.626A10.688,10.688,0,0,1,21.85,9.484a1.25,1.25,0,1,1,.675,2.407,8.194,8.194,0,0,0-2.1.913.242.242,0,0,0,0,.4,6.272,6.272,0,0,0,2.039.887,1.25,1.25,0,0,1-.268,2.471Zm-12.108-.029A8.754,8.754,0,0,0,12.939,15.3a2.742,2.742,0,0,0-.043-4.626A10.69,10.69,0,0,0,10.15,9.484a1.25,1.25,0,1,0-.675,2.407,8.2,8.2,0,0,1,2.1.913.242.242,0,0,1,0,.4,6.272,6.272,0,0,1-2.039.887,1.25,1.25,0,1,0,.537,2.442Z"/>
</svg>
