<svg xmlns="http://www.w3.org/2000/svg" width="32" height="32" viewBox="0 0 32 32">
  <path id="_034-crying" data-name="034-crying" d="M28.5,25a1.25,1.25,0,0,1-1.063-1.906,13.5,13.5,0,1,0-22.872,0,1.25,1.25,0,1,1-2.128,1.313,16,16,0,1,1,27.128,0A1.249,1.249,0,0,1,28.5,25Zm-8.69,6.524a1.25,1.25,0,1,0-.617-2.423,12.969,12.969,0,0,1-6.383,0,1.25,1.25,0,1,0-.617,2.423,15.468,15.468,0,0,0,7.617,0Zm.683-10.445A5.8,5.8,0,0,0,15.937,18.5a5.8,5.8,0,0,0-4.555,2.579,1.25,1.25,0,1,0,2.109,1.342A3.278,3.278,0,0,1,15.937,21a3.278,3.278,0,0,1,2.445,1.421,1.25,1.25,0,1,0,2.109-1.342ZM7.937,32a1.25,1.25,0,0,1-1.25-1.25V17.687a1.25,1.25,0,1,1,2.5,0V30.75A1.25,1.25,0,0,1,7.937,32Zm17.375-1.25V17.687a1.25,1.25,0,0,0-2.5,0V30.75a1.25,1.25,0,0,0,2.5,0ZM9.242,14.269a3.455,3.455,0,0,1,2.165-.956h1.718a1.25,1.25,0,1,0,0-2.5H11.442a5.819,5.819,0,0,0-3.81,1.544,1.25,1.25,0,0,0,1.61,1.913Zm15.373-.256a1.25,1.25,0,0,0-.228-1.753,6.188,6.188,0,0,0-3.9-1.446h-1.55a1.25,1.25,0,0,0,0,2.5h1.591a3.78,3.78,0,0,1,2.335.927,1.25,1.25,0,0,0,1.753-.228Z"/>
</svg>
