<svg xmlns="http://www.w3.org/2000/svg" width="32" height="32" viewBox="0 0 32 32">
  <g id="_006-drooling" data-name="006-drooling" transform="translate(0)">
    <path id="Path_1" data-name="Path 1" d="M24.812,28.228a3.75,3.75,0,1,1-7.5,0,1.25,1.25,0,0,1,2.5,0,1.25,1.25,0,1,0,2.5.005,6.486,6.486,0,0,0-1.486-2.472,6.012,6.012,0,0,1-.973-2.852,7.018,7.018,0,0,1-3.917,1.216,8.049,8.049,0,0,1-6.3-3.579A1.25,1.25,0,0,1,11.742,19.2a5.5,5.5,0,0,0,4.2,2.421v0a4.987,4.987,0,0,0,3.407-1.506,1.739,1.739,0,0,1,2.942,1.305,5.365,5.365,0,0,0,.512,2.8c1.805,2.307,2.014,3.39,2.014,4ZM15.558,30.8a1.25,1.25,0,0,0-1.1-1.383,13.5,13.5,0,1,1,12.012-4.888,1.25,1.25,0,1,0,1.938,1.58A16,16,0,1,0,14.174,31.9a1.267,1.267,0,0,0,.143.008A1.25,1.25,0,0,0,15.558,30.8ZM8.436,15.188a1.25,1.25,0,0,1-1.081-1.877,4.989,4.989,0,0,1,4.062-2.5h1.707a1.25,1.25,0,1,1,0,2.5H11.419a2.524,2.524,0,0,0-1.9,1.251A1.249,1.249,0,0,1,8.436,15.188Zm15.815-.168a1.25,1.25,0,0,0,.455-1.708,4.989,4.989,0,0,0-4.062-2.5H18.937a1.25,1.25,0,0,0,0,2.5h1.706a2.524,2.524,0,0,1,1.9,1.251,1.249,1.249,0,0,0,1.708.455Z" fill="#0023c4"/>
    <path id="Path_2" data-name="Path 2" d="M24.812,28.228a3.75,3.75,0,1,1-7.5,0,1.25,1.25,0,0,1,2.5,0,1.25,1.25,0,1,0,2.5.005,6.486,6.486,0,0,0-1.486-2.472,6.012,6.012,0,0,1-.973-2.852,7.018,7.018,0,0,1-3.917,1.216,8.049,8.049,0,0,1-6.3-3.579A1.25,1.25,0,0,1,11.742,19.2a5.5,5.5,0,0,0,4.2,2.421v0a4.987,4.987,0,0,0,3.407-1.506,1.739,1.739,0,0,1,2.942,1.305,5.365,5.365,0,0,0,.512,2.8c1.805,2.307,2.014,3.39,2.014,4ZM15.558,30.8a1.25,1.25,0,0,0-1.1-1.383,13.5,13.5,0,1,1,12.012-4.888,1.25,1.25,0,1,0,1.938,1.58A16,16,0,1,0,14.174,31.9a1.267,1.267,0,0,0,.143.008A1.25,1.25,0,0,0,15.558,30.8ZM8.436,15.188a1.25,1.25,0,0,1-1.081-1.877,4.989,4.989,0,0,1,4.062-2.5h1.707a1.25,1.25,0,1,1,0,2.5H11.419a2.524,2.524,0,0,0-1.9,1.251A1.249,1.249,0,0,1,8.436,15.188Zm15.815-.168a1.25,1.25,0,0,0,.455-1.708,4.989,4.989,0,0,0-4.062-2.5H18.937a1.25,1.25,0,0,0,0,2.5h1.706a2.524,2.524,0,0,1,1.9,1.251,1.249,1.249,0,0,0,1.708.455Z"/>
  </g>
</svg>
