<svg xmlns="http://www.w3.org/2000/svg" width="32" height="32" viewBox="0 0 32 32">
  <path id="_032-in_love" data-name="032-in love" d="M16,32A16,16,0,0,1,4.686,4.686,16,16,0,0,1,27.314,27.314,15.9,15.9,0,0,1,16,32ZM16,2.5A13.5,13.5,0,1,0,29.5,16,13.515,13.515,0,0,0,16,2.5Zm7.548,18.386-.334-.658a2.685,2.685,0,0,0-4.149-.82,4.763,4.763,0,0,1-3.159,1.28,5.5,5.5,0,0,1-4.2-2.421A1.25,1.25,0,0,0,9.6,19.609a8.036,8.036,0,0,0,6.3,3.579A7.286,7.286,0,0,0,20.7,21.3a.166.166,0,0,1,.147-.038.187.187,0,0,1,.135.1l.342.674.018.034a1.517,1.517,0,0,1-1.836,2.158,1.25,1.25,0,1,0-.831,2.358,4.017,4.017,0,0,0,4.87-5.7Zm-8.7-9.949C14.844,10.946,14.844,10.929,14.844,10.937ZM12.031,8.125a3.349,3.349,0,0,0-1.555.379,3.483,3.483,0,0,0-1.57-.379,2.813,2.813,0,0,0-2.813,2.813,6.041,6.041,0,0,0,2.721,4.636,2.77,2.77,0,0,0,3.309,0,6.042,6.042,0,0,0,2.72-4.636,2.813,2.813,0,0,0-2.812-2.813Zm-1.409,5.449a.257.257,0,0,1-.307,0,3.755,3.755,0,0,1-1.721-2.637.317.317,0,0,1,.312-.312,1.063,1.063,0,0,1,.325.055,1.25,1.25,0,0,0,2.473.011,1.042,1.042,0,0,1,.327-.066.317.317,0,0,1,.312.312A3.756,3.756,0,0,1,10.622,13.574ZM6.094,10.937C6.094,10.929,6.094,10.946,6.094,10.937Zm11.062-.062C17.156,10.867,17.156,10.883,17.156,10.875Zm5.938-2.813a3.346,3.346,0,0,0-1.562.383,3.346,3.346,0,0,0-1.562-.383,2.813,2.813,0,0,0-2.812,2.813,6.041,6.041,0,0,0,2.721,4.636,2.77,2.77,0,0,0,3.309,0,6.042,6.042,0,0,0,2.721-4.636,2.813,2.813,0,0,0-2.812-2.813Zm-1.409,5.449a.257.257,0,0,1-.307,0,3.755,3.755,0,0,1-1.721-2.637.317.317,0,0,1,.312-.312,1.042,1.042,0,0,1,.327.066,1.25,1.25,0,0,0,2.471,0,1.042,1.042,0,0,1,.327-.066.317.317,0,0,1,.312.312,3.756,3.756,0,0,1-1.721,2.637Z"/>
</svg>
