<svg xmlns="http://www.w3.org/2000/svg" width="32" height="32" viewBox="0 0 32 32">
  <path id="_043-pensive" data-name="043-pensive" d="M16,32A16,16,0,0,1,4.686,4.686,16,16,0,0,1,27.314,27.314,15.9,15.9,0,0,1,16,32ZM16,2.5A13.5,13.5,0,1,0,29.5,16,13.515,13.515,0,0,0,16,2.5Zm5.75,20.063a1.25,1.25,0,0,0-1.25-1.25h-9a1.25,1.25,0,0,0,0,2.5h9A1.25,1.25,0,0,0,21.75,22.562ZM20.741,17.69l-1.865,0h0a1.25,1.25,0,0,1,0-2.5h1.591a3.8,3.8,0,0,0,2.335-.428,1.25,1.25,0,0,1,1.524,1.982,5.9,5.9,0,0,1-3.584.949Zm-9.458,0a5.7,5.7,0,0,1-3.708-1.04,1.25,1.25,0,0,1,1.6-1.921,3.789,3.789,0,0,0,2.189.46h1.7a1.25,1.25,0,0,1,0,2.5Z" transform="translate(0)"/>
</svg>
