<svg xmlns="http://www.w3.org/2000/svg" width="31.998" height="32" viewBox="0 0 31.998 32">
  <path id="_028-sleepy" data-name="028-sleepy" d="M16.019,32A16,16,0,0,1,4.705,4.686a16,16,0,0,1,27.282,10.3,1.25,1.25,0,0,1-2.5.157A13.5,13.5,0,1,0,23.87,26.984a1.25,1.25,0,1,1,1.456,2.032A15.89,15.89,0,0,1,16.019,32Zm6.209-7.694a2.764,2.764,0,0,0-.056-2.83,6.783,6.783,0,0,0-6.153-3.226,6.783,6.783,0,0,0-6.153,3.226,2.763,2.763,0,0,0-.056,2.83A2.821,2.821,0,0,0,12.27,25.75h7.5a2.821,2.821,0,0,0,2.459-1.444Zm-2.186-1.521a.284.284,0,0,1,0,.3.308.308,0,0,1-.277.164h-7.5a.308.308,0,0,1-.277-.164.283.283,0,0,1,0-.3,4.383,4.383,0,0,1,4.023-2.035A4.383,4.383,0,0,1,20.042,22.785Zm8.22,2.712a3.789,3.789,0,0,1-2.686-1.113c-.436-.436-1.057-1.355-1.415-4.284a2.206,2.206,0,0,1,2.459-2.459c2.93.358,3.848.979,4.284,1.415A3.783,3.783,0,0,1,30.92,24.4,3.745,3.745,0,0,1,28.262,25.5Zm-.915-2.877a1.268,1.268,0,1,0,1.793-1.793,5.8,5.8,0,0,0-2.448-.656A5.794,5.794,0,0,0,27.347,22.62ZM20.76,15.065l-1.865,0h0a1.25,1.25,0,0,1,0-2.5h1.591a3.809,3.809,0,0,0,2.335-.428,1.25,1.25,0,0,1,1.524,1.982,5.9,5.9,0,0,1-3.584.949Zm-9.458,0a5.7,5.7,0,0,1-3.709-1.04,1.25,1.25,0,0,1,1.6-1.921,3.782,3.782,0,0,0,2.189.46h1.7a1.25,1.25,0,1,1,0,2.5H11.3Z" transform="translate(-0.019)"/>
</svg>
