<svg xmlns="http://www.w3.org/2000/svg" width="32" height="32" viewBox="0 0 32 32">
  <path id="_026-angry" data-name="026-angry" d="M16,32A16,16,0,0,1,4.686,4.686,16,16,0,0,1,27.314,27.314,15.9,15.9,0,0,1,16,32ZM16,2.5A13.5,13.5,0,1,0,29.5,16,13.515,13.515,0,0,0,16,2.5Zm6.242,19.641a8.036,8.036,0,0,0-6.3-3.579,8.036,8.036,0,0,0-6.3,3.579,1.25,1.25,0,0,0,2.109,1.342,5.5,5.5,0,0,1,4.2-2.421,5.5,5.5,0,0,1,4.2,2.421,1.25,1.25,0,0,0,2.109-1.342ZM8.911,9.7a1.25,1.25,0,1,0-.322,2.479,3.831,3.831,0,0,1,2.068.768,1.563,1.563,0,0,0,.869,2.861,2.208,2.208,0,0,0,1.98-2.447,2.668,2.668,0,0,0-.788-1.9A6.222,6.222,0,0,0,8.911,9.7ZM24.49,10.777a1.25,1.25,0,0,0-1.4-1.079,6.222,6.222,0,0,0-3.807,1.762,2.668,2.668,0,0,0-.788,1.9c0,1.343.674,2.447,1.98,2.447a1.563,1.563,0,0,0,.869-2.861,3.831,3.831,0,0,1,2.068-.768,1.25,1.25,0,0,0,1.079-1.4Z" transform="translate(0)"/>
</svg>
