<svg xmlns="http://www.w3.org/2000/svg" width="32" height="32" viewBox="0 0 32 32">
  <path id="_004-unamused" data-name="004-unamused" d="M16,32A16,16,0,0,1,4.686,4.686,16,16,0,0,1,27.314,27.314,15.9,15.9,0,0,1,16,32ZM16,2.5A13.5,13.5,0,1,0,29.5,16,13.515,13.515,0,0,0,16,2.5Zm6.242,19.641a8.036,8.036,0,0,0-6.3-3.579,8.036,8.036,0,0,0-6.3,3.579,1.25,1.25,0,0,0,2.109,1.342,5.5,5.5,0,0,1,4.2-2.421,5.5,5.5,0,0,1,4.2,2.421,1.25,1.25,0,0,0,2.109-1.342ZM12.775,11.225a2.7,2.7,0,0,1,.787,2.025,1.562,1.562,0,1,1-3.1-.3,4.018,4.018,0,0,0-2.08.919,1.25,1.25,0,1,1-1.525-1.981,6.315,6.315,0,0,1,3.95-1.447,2.818,2.818,0,0,1,1.963.787Zm8.662-.786a6.315,6.315,0,0,0-3.95,1.447,1.25,1.25,0,1,0,1.525,1.981,4.019,4.019,0,0,1,2.08-.919,1.563,1.563,0,1,0,3.1.3,2.7,2.7,0,0,0-.787-2.025,2.818,2.818,0,0,0-1.962-.787Z"/>
</svg>
