<svg xmlns="http://www.w3.org/2000/svg" width="32" height="32" viewBox="0 0 32 32">
  <path id="_011-winking" data-name="011-winking" d="M16,32A16,16,0,0,1,4.686,4.686,16,16,0,0,1,27.314,27.314,15.9,15.9,0,0,1,16,32ZM16,2.5A13.5,13.5,0,1,0,29.5,16,13.515,13.515,0,0,0,16,2.5Zm5.859,16.321a1.25,1.25,0,0,0-1.726.383,5.5,5.5,0,0,1-4.2,2.421,5.5,5.5,0,0,1-4.2-2.421,1.25,1.25,0,0,0-2.109,1.342,8.037,8.037,0,0,0,6.3,3.579,8.036,8.036,0,0,0,6.3-3.579,1.25,1.25,0,0,0-.383-1.726ZM10.5,10.312a1.563,1.563,0,1,1-1.563,1.563A1.563,1.563,0,0,1,10.5,10.312Zm14.74,3.7a1.25,1.25,0,0,0-.228-1.753,6.187,6.187,0,0,0-3.9-1.446h-1.55a1.25,1.25,0,0,0,0,2.5h1.591a3.777,3.777,0,0,1,2.335.927,1.25,1.25,0,0,0,1.753-.228Z"/>
</svg>
