<svg xmlns="http://www.w3.org/2000/svg" width="24" height="24" viewBox="0 0 24 24">
  <g id="Group_32" data-name="Group 32" transform="translate(-210 -825)">
    <rect id="Rectangle_26" data-name="Rectangle 26" width="24" height="24" transform="translate(210 825)" fill="none"/>
    <g id="Group_31" data-name="Group 31" transform="translate(-435 159)">
      <path id="Path_24" data-name="Path 24" d="M20.4,16H15.6A5.606,5.606,0,0,0,10,21.6v.8a.826.826,0,0,0,.232.568l2.168,2.16V28a5.6,5.6,0,0,0,11.2,0V25.128l2.168-2.16A.826.826,0,0,0,26,22.4v-.8A5.606,5.606,0,0,0,20.4,16ZM22,28a4,4,0,0,1-8,0V23.7l2.5-1.248L22,23.824Zm2.4-5.928-.856.848a.785.785,0,0,0-.552-.5l-6.4-1.6a.782.782,0,0,0-.552.064l-3.2,1.6a.773.773,0,0,0-.384.44l-.856-.856V21.6a4,4,0,0,1,4-4h4.8a4,4,0,0,1,4,4Z" transform="translate(639.2 653.2)" fill="#f9474e"/>
      <path id="Path_25" data-name="Path 25" d="M32.2,12H29v1.6h2.4v4H33V12.8A.8.8,0,0,0,32.2,12Z" transform="translate(635.4 654)" fill="#f9474e"/>
      <path id="Path_26" data-name="Path 26" d="M7.6,13.6H10V12H6.8a.8.8,0,0,0-.8.8v4.8H7.6Z" transform="translate(640 654)" fill="#f9474e"/>
      <path id="Path_27" data-name="Path 27" d="M31.4,39H29v1.6h3.2a.8.8,0,0,0,.8-.8V35H31.4Z" transform="translate(635.4 649.4)" fill="#f9474e"/>
      <path id="Path_28" data-name="Path 28" d="M7.6,35H6v4.8a.8.8,0,0,0,.8.8H10V39H7.6Z" transform="translate(640 649.4)" fill="#f9474e"/>
    </g>
  </g>
</svg>
