<svg xmlns="http://www.w3.org/2000/svg" width="320" height="320" viewBox="0 0 320 320">
  <g id="Group_97" data-name="Group 97" transform="translate(-28 -175)">
    <g id="Ellipse_13" data-name="Ellipse 13" transform="translate(28 175)" fill="none" stroke="#707070" stroke-width="1">
      <circle cx="160" cy="160" r="160" stroke="none"/>
      <circle cx="160" cy="160" r="159.5" fill="none"/>
    </g>
    <g id="Ellipse_14" data-name="Ellipse 14" transform="translate(48 195)" fill="none" stroke="#707070" stroke-width="1">
      <circle cx="140" cy="140" r="140" stroke="none"/>
      <circle cx="140" cy="140" r="139.5" fill="none"/>
    </g>
    <g id="Ellipse_12" data-name="Ellipse 12" transform="translate(68 215)" fill="none" stroke="#707070" stroke-width="1">
      <circle cx="120" cy="120" r="120" stroke="none"/>
      <circle cx="120" cy="120" r="119.5" fill="none"/>
    </g>
    <g id="Ellipse_10" data-name="Ellipse 10" transform="translate(88 235)" fill="none" stroke="#707070" stroke-width="1">
      <circle cx="100" cy="100" r="100" stroke="none"/>
      <circle cx="100" cy="100" r="99.5" fill="none"/>
    </g>
    <g id="Ellipse_11" data-name="Ellipse 11" transform="translate(108 255)" fill="none" stroke="#707070" stroke-width="1">
      <circle cx="80" cy="80" r="80" stroke="none"/>
      <circle cx="80" cy="80" r="79.5" fill="none"/>
    </g>
    <g id="Ellipse_9" data-name="Ellipse 9" transform="translate(128 275)" fill="none" stroke="#707070" stroke-width="1">
      <circle cx="60" cy="60" r="60" stroke="none"/>
      <circle cx="60" cy="60" r="59.5" fill="none"/>
    </g>
    <g id="Ellipse_8" data-name="Ellipse 8" transform="translate(148 295)" fill="none" stroke="#707070" stroke-width="1">
      <circle cx="40" cy="40" r="40" stroke="none"/>
      <circle cx="40" cy="40" r="39.5" fill="none"/>
    </g>
    <g id="Group_23" data-name="Group 23" transform="translate(0 -71)">
      <rect id="Rectangle_18" data-name="Rectangle 18" width="100" height="100" transform="translate(138 356)" fill="#fdfdfd"/>
      <g id="facial_pass" data-name="facial pass" transform="translate(146 364)">
        <path id="Path_10" data-name="Path 10" d="M46,2H6A4.012,4.012,0,0,0,2,6V78a4.012,4.012,0,0,0,4,4H46a4.012,4.012,0,0,0,4-4V6a4.012,4.012,0,0,0-4-4ZM12.667,4.667H39.333V6A1.333,1.333,0,0,1,38,7.333H14A1.333,1.333,0,0,1,12.667,6ZM47.333,78A1.333,1.333,0,0,1,46,79.333H6A1.333,1.333,0,0,1,4.667,78V6A1.333,1.333,0,0,1,6,4.667h4V6a4.012,4.012,0,0,0,4,4H38a4.012,4.012,0,0,0,4-4V4.667h4A1.333,1.333,0,0,1,47.333,6Z"/>
        <path id="Path_11" data-name="Path 11" d="M27.333,16h-8A9.344,9.344,0,0,0,10,25.333v1.333a1.377,1.377,0,0,0,.387.947L14,31.213V36a9.333,9.333,0,0,0,18.667,0V31.213l3.613-3.6a1.377,1.377,0,0,0,.387-.947V25.333A9.344,9.344,0,0,0,27.333,16ZM30,36a6.667,6.667,0,0,1-13.333,0V28.827l4.16-2.08L30,29.04Zm4-9.88-1.427,1.413a1.308,1.308,0,0,0-.92-.827L20.987,24.04a1.3,1.3,0,0,0-.92.107l-5.333,2.667a1.288,1.288,0,0,0-.64.733L12.667,26.12v-.787a6.667,6.667,0,0,1,6.667-6.667h8A6.667,6.667,0,0,1,34,25.333Z" transform="translate(2.667 4.667)"/>
        <path id="Path_12" data-name="Path 12" d="M21.333,50a5.333,5.333,0,1,0,5.333,5.333A5.333,5.333,0,0,0,21.333,50Zm0,8A2.667,2.667,0,1,1,24,55.333,2.667,2.667,0,0,1,21.333,58Z" transform="translate(4.667 16)"/>
        <path id="Path_13" data-name="Path 13" d="M34.333,12H29v2.667h4v6.667h2.667v-8A1.333,1.333,0,0,0,34.333,12Z" transform="translate(9 3.333)"/>
        <path id="Path_14" data-name="Path 14" d="M8.667,14.667h4V12H7.333A1.333,1.333,0,0,0,6,13.333v8H8.667Z" transform="translate(1.333 3.333)"/>
        <path id="Path_15" data-name="Path 15" d="M33,41.667H29v2.667h5.333A1.333,1.333,0,0,0,35.667,43V35H33Z" transform="translate(9 11)"/>
        <path id="Path_16" data-name="Path 16" d="M8.667,35H6v8a1.333,1.333,0,0,0,1.333,1.333h5.333V41.667h-4Z" transform="translate(1.333 11)"/>
        <path id="Path_17" data-name="Path 17" d="M55.333,42A13.333,13.333,0,1,0,68.667,55.333,13.333,13.333,0,0,0,55.333,42Zm0,24A10.667,10.667,0,1,1,66,55.333,10.667,10.667,0,0,1,55.333,66Z" transform="translate(13.333 13.333)"/>
        <path id="Path_18" data-name="Path 18" d="M54.667,37.667h2.667V32.333A1.333,1.333,0,0,0,56,31H40v2.667H54.667Z" transform="translate(12.667 9.667)"/>
        <path id="Path_19" data-name="Path 19" d="M51,38h2.667v2.667H51Z" transform="translate(16.333 12)"/>
        <path id="Path_20" data-name="Path 20" d="M52.146,54.238,49.178,51.27l-1.885,1.885,4,4a1.333,1.333,0,0,0,.943.391h.06a1.333,1.333,0,0,0,.965-.479l6.667-8-2.051-1.707Z" transform="translate(15.098 15.12)"/>
      </g>
    </g>
  </g>
</svg>
