<svg xmlns="http://www.w3.org/2000/svg" width="339" height="355" viewBox="0 0 339 355">
  <g id="Group_96" data-name="Group 96" transform="translate(-28 -162)">
    <g id="Ellipse_13" data-name="Ellipse 13" transform="translate(28 175)" fill="none" stroke="#707070" stroke-width="1">
      <circle cx="160" cy="160" r="160" stroke="none"/>
      <circle cx="160" cy="160" r="159.5" fill="none"/>
    </g>
    <g id="Ellipse_14" data-name="Ellipse 14" transform="translate(48 195)" fill="none" stroke="#707070" stroke-width="1">
      <circle cx="140" cy="140" r="140" stroke="none"/>
      <circle cx="140" cy="140" r="139.5" fill="none"/>
    </g>
    <g id="Ellipse_12" data-name="Ellipse 12" transform="translate(68 215)" fill="none" stroke="#707070" stroke-width="1">
      <circle cx="120" cy="120" r="120" stroke="none"/>
      <circle cx="120" cy="120" r="119.5" fill="none"/>
    </g>
    <g id="Ellipse_10" data-name="Ellipse 10" transform="translate(88 235)" fill="none" stroke="#707070" stroke-width="1">
      <circle cx="100" cy="100" r="100" stroke="none"/>
      <circle cx="100" cy="100" r="99.5" fill="none"/>
    </g>
    <g id="Ellipse_11" data-name="Ellipse 11" transform="translate(108 255)" fill="none" stroke="#707070" stroke-width="1">
      <circle cx="80" cy="80" r="80" stroke="none"/>
      <circle cx="80" cy="80" r="79.5" fill="none"/>
    </g>
    <g id="Ellipse_9" data-name="Ellipse 9" transform="translate(128 275)" fill="none" stroke="#707070" stroke-width="1">
      <circle cx="60" cy="60" r="60" stroke="none"/>
      <circle cx="60" cy="60" r="59.5" fill="none"/>
    </g>
    <g id="Ellipse_8" data-name="Ellipse 8" transform="translate(148 295)" fill="none" stroke="#707070" stroke-width="1">
      <circle cx="40" cy="40" r="40" stroke="none"/>
      <circle cx="40" cy="40" r="39.5" fill="none"/>
    </g>
    <g id="Group_9" data-name="Group 9" transform="translate(-718 -166)">
      <circle id="Ellipse_15" data-name="Ellipse 15" cx="24" cy="24" r="24" transform="translate(847 501)" fill="#fdfdfd"/>
      <path id="_043-pensive" data-name="043-pensive" d="M16,32A16,16,0,0,1,4.686,4.686,16,16,0,0,1,27.314,27.314,15.9,15.9,0,0,1,16,32ZM16,2.5A13.5,13.5,0,1,0,29.5,16,13.515,13.515,0,0,0,16,2.5Zm5.75,20.063a1.25,1.25,0,0,0-1.25-1.25h-9a1.25,1.25,0,0,0,0,2.5h9A1.25,1.25,0,0,0,21.75,22.562ZM20.741,17.69l-1.865,0h0a1.25,1.25,0,0,1,0-2.5h1.591a3.8,3.8,0,0,0,2.335-.428,1.25,1.25,0,0,1,1.524,1.982,5.9,5.9,0,0,1-3.584.949Zm-9.458,0a5.7,5.7,0,0,1-3.708-1.04,1.25,1.25,0,0,1,1.6-1.921,3.789,3.789,0,0,0,2.189.46h1.7a1.25,1.25,0,0,1,0,2.5Z" transform="translate(855 509)"/>
    </g>
    <g id="Group_13" data-name="Group 13" transform="translate(-728 -255)">
      <circle id="Ellipse_23" data-name="Ellipse 23" cx="24" cy="24" r="24" transform="translate(895 482)" fill="#fdfdfd"/>
      <path id="_026-angry" data-name="026-angry" d="M16,32A16,16,0,0,1,4.686,4.686,16,16,0,0,1,27.314,27.314,15.9,15.9,0,0,1,16,32ZM16,2.5A13.5,13.5,0,1,0,29.5,16,13.515,13.515,0,0,0,16,2.5Zm6.242,19.641a8.036,8.036,0,0,0-6.3-3.579,8.036,8.036,0,0,0-6.3,3.579,1.25,1.25,0,0,0,2.109,1.342,5.5,5.5,0,0,1,4.2-2.421,5.5,5.5,0,0,1,4.2,2.421,1.25,1.25,0,0,0,2.109-1.342ZM8.911,9.7a1.25,1.25,0,1,0-.322,2.479,3.831,3.831,0,0,1,2.068.768,1.563,1.563,0,0,0,.869,2.861,2.208,2.208,0,0,0,1.98-2.447,2.668,2.668,0,0,0-.788-1.9A6.222,6.222,0,0,0,8.911,9.7ZM24.49,10.777a1.25,1.25,0,0,0-1.4-1.079,6.222,6.222,0,0,0-3.807,1.762,2.668,2.668,0,0,0-.788,1.9c0,1.343.674,2.447,1.98,2.447a1.563,1.563,0,0,0,.869-2.861,3.831,3.831,0,0,1,2.068-.768,1.25,1.25,0,0,0,1.079-1.4Z" transform="translate(903 490)"/>
    </g>
    <g id="Group_11" data-name="Group 11" transform="translate(-699 -42)">
      <circle id="Ellipse_25" data-name="Ellipse 25" cx="24" cy="24" r="24" transform="translate(963 407)" fill="#fdfdfd"/>
      <path id="_047-stars" data-name="047-stars" d="M16,32A16,16,0,0,1,0,16a1.25,1.25,0,0,1,2.5,0,13.5,13.5,0,1,0,27,0A1.25,1.25,0,0,1,32,16,16,16,0,0,1,16,32ZM21.445,2.23A1.25,1.25,0,0,0,20.608.674a16.092,16.092,0,0,0-9.206,0,1.25,1.25,0,0,0,.718,2.395,13.592,13.592,0,0,1,7.77,0,1.249,1.249,0,0,0,1.557-.838Zm.707,20.293a2.763,2.763,0,0,0,.056-2.83,2.821,2.821,0,0,0-2.459-1.444h-7.5a2.821,2.821,0,0,0-2.459,1.444,2.764,2.764,0,0,0,.056,2.83A6.783,6.783,0,0,0,16,25.75a6.783,6.783,0,0,0,6.153-3.226Zm-2.4-1.774a.308.308,0,0,1,.277.164.283.283,0,0,1,0,.3A4.383,4.383,0,0,1,16,23.25a4.383,4.383,0,0,1-4.023-2.035.284.284,0,0,1,0-.3.308.308,0,0,1,.277-.164Zm5.967-4.562a2.352,2.352,0,0,1-1.092-.27l-1.246-.652-1.246.652a2.346,2.346,0,0,1-3.4-2.471l.237-1.374-1-.974a2.341,2.341,0,0,1,1.3-4l1.392-.2.621-1.253a2.349,2.349,0,0,1,4.207,0L26.1,6.9l1.392.2a2.341,2.341,0,0,1,1.3,4l-1,.974.237,1.374a2.349,2.349,0,0,1-2.311,2.741Zm-2.338-3.442a2.35,2.35,0,0,1,1.09.268l1.042.545-.2-1.146a2.338,2.338,0,0,1,.677-2.076l.831-.807-1.154-.167A2.346,2.346,0,0,1,23.9,8.084l-.521-1.052-.521,1.052A2.347,2.347,0,0,1,21.09,9.363l-1.154.167.831.807a2.338,2.338,0,0,1,.677,2.076l-.2,1.146,1.042-.545a2.349,2.349,0,0,1,1.09-.268Zm2.761-5.772h0Zm-2.9-.216h0ZM10.96,16.188a2.352,2.352,0,0,1-1.092-.27l-1.246-.652-1.246.652a2.346,2.346,0,0,1-3.4-2.471l.237-1.374-1-.974a2.341,2.341,0,0,1,1.3-4L5.9,6.9l.621-1.253a2.349,2.349,0,0,1,4.207,0L11.347,6.9l1.391.2a2.341,2.341,0,0,1,1.3,4l-1,.974.237,1.374a2.349,2.349,0,0,1-2.311,2.741ZM8.622,12.746a2.35,2.35,0,0,1,1.09.268l1.041.545-.2-1.146a2.338,2.338,0,0,1,.677-2.076l.831-.807L10.91,9.363A2.346,2.346,0,0,1,9.143,8.084L8.622,7.032,8.1,8.084A2.347,2.347,0,0,1,6.334,9.363L5.18,9.53l.831.807a2.338,2.338,0,0,1,.677,2.076l-.2,1.146,1.042-.545A2.349,2.349,0,0,1,8.622,12.746Zm.136-5.988h0Z" transform="translate(971 415)"/>
    </g>
    <g id="Group_10" data-name="Group 10" transform="translate(-907 -212)">
      <circle id="Ellipse_26" data-name="Ellipse 26" cx="24" cy="24" r="24" transform="translate(942 436)" fill="#fdfdfd"/>
      <path id="_045-party" data-name="045-party" d="M16,32.022a15.937,15.937,0,0,1-9.967-3.483,1.25,1.25,0,1,1,1.558-1.955A13.355,13.355,0,0,0,16,29.522a13.515,13.515,0,0,0,13.5-13.5,1.25,1.25,0,0,1,2.5,0,16,16,0,0,1-16,16ZM2.656,13.961A13.582,13.582,0,0,1,16,2.522a1.25,1.25,0,0,0,0-2.5A16,16,0,0,0,.185,13.583a1.25,1.25,0,1,0,2.471.378Zm25.552-.971A3.38,3.38,0,0,0,30.2,10.662L31.916,3.68A2.938,2.938,0,0,0,28.337.132h0L21.472,1.883A3.407,3.407,0,0,0,19.438,7.01a17.727,17.727,0,0,0,5.729,5.777,3.367,3.367,0,0,0,3.042.2Zm.747-10.436a.438.438,0,0,1,.533.529L27.77,10.064a.9.9,0,0,1-.531.621.888.888,0,0,1-.8-.053A15.232,15.232,0,0,1,21.55,5.673a.908.908,0,0,1,.54-1.367ZM16,22.9a1.25,1.25,0,0,0-1.25-1.25l-11,0a1.25,1.25,0,0,1,0-2.5,1.286,1.286,0,0,1,.875.393,1.25,1.25,0,1,0,1.75-1.785A3.749,3.749,0,0,0,3.75,16.647a3.75,3.75,0,0,0,0,7.5l11,0h0A1.25,1.25,0,0,0,16,22.9ZM8.376,16.522a1.25,1.25,0,0,1-.806-2.206,5.823,5.823,0,0,1,3.81-1.544h1.683a1.25,1.25,0,0,1,0,2.5H11.345a3.455,3.455,0,0,0-2.165.957A1.245,1.245,0,0,1,8.376,16.522Zm15.186-.062a1.244,1.244,0,0,1-.762-.26,3.782,3.782,0,0,0-2.335-.927H18.874a1.25,1.25,0,0,1,0-2.5h1.55a6.191,6.191,0,0,1,3.9,1.446,1.25,1.25,0,0,1-.764,2.24ZM0,1.584A1.562,1.562,0,1,0,1.563.022,1.563,1.563,0,0,0,0,1.584Zm21.25,21a1.563,1.563,0,1,0,1.563-1.562A1.563,1.563,0,0,0,21.25,22.584Zm7.625,6.562a1.562,1.562,0,1,0,1.562-1.562,1.563,1.563,0,0,0-1.562,1.563Z" transform="translate(950 443.978)"/>
    </g>
    <g id="Group_15" data-name="Group 15" transform="translate(-797 -13)">
      <circle id="Ellipse_21" data-name="Ellipse 21" cx="24" cy="24" r="24" transform="translate(937 482)" fill="#fdfdfd"/>
      <path id="_022-rolling" data-name="022-rolling" d="M17.925,25.189A6.95,6.95,0,0,1,16.314,25a2.779,2.779,0,0,1-2.052-1.972,2.836,2.836,0,0,1,.722-2.775l5.355-5.355a2.836,2.836,0,0,1,2.775-.722,2.779,2.779,0,0,1,1.972,2.052A6.838,6.838,0,0,1,23,22.91,7.039,7.039,0,0,1,17.925,25.189Zm4.411-8.625a.316.316,0,0,0-.229.1h0l-5.355,5.355a.323.323,0,0,0-.084.327.3.3,0,0,0,.227.221,4.438,4.438,0,0,0,4.338-1.423A4.438,4.438,0,0,0,22.655,16.8a.3.3,0,0,0-.221-.227A.369.369,0,0,0,22.336,16.564Zm5.919-3.812c-.614,0-1.7-.209-4.007-2.016a2.2,2.2,0,0,1,0-3.467c2.31-1.807,3.393-2.016,4.007-2.016a3.75,3.75,0,1,1,0,7.5ZM26.1,9a5.751,5.751,0,0,0,2.165,1.25,1.25,1.25,0,1,0,0-2.5A5.752,5.752,0,0,0,26.1,9ZM21.828,30.913a15.987,15.987,0,0,0,10.2-15.395,1.25,1.25,0,1,0-2.5.074,13.5,13.5,0,0,1-13.9,13.9,1.25,1.25,0,1,0-.074,2.5q.244.007.487.007A15.925,15.925,0,0,0,21.828,30.913ZM4.015,24.639a1.25,1.25,0,0,0,.43-1.715A13.5,13.5,0,0,1,22.962,4.408a1.25,1.25,0,0,0,1.284-2.145A16.083,16.083,0,0,0,14.166.107,16,16,0,0,0,.145,14.128,16.082,16.082,0,0,0,2.3,24.209a1.249,1.249,0,0,0,1.714.43ZM8.967,32a3.765,3.765,0,0,1-3.75-3.772c0-.613.209-1.7,2.016-4.007h0a2.2,2.2,0,0,1,3.466,0c1.807,2.311,2.016,3.393,2.016,4.007A3.765,3.765,0,0,1,8.967,32Zm-1.25-3.766a1.25,1.25,0,1,0,2.5,0,5.75,5.75,0,0,0-1.25-2.165A5.752,5.752,0,0,0,7.718,28.233Zm8.537-15.669A2.732,2.732,0,0,1,13.6,9.217a10.6,10.6,0,0,1,1.09-2.765,1.25,1.25,0,0,1,2.178,1.227,8.1,8.1,0,0,0-.835,2.112.208.208,0,0,0,.061.2.219.219,0,0,0,.209.066,6.224,6.224,0,0,0,2.051-.806A1.25,1.25,0,0,1,19.7,11.36,8.706,8.706,0,0,1,16.83,12.5,2.749,2.749,0,0,1,16.255,12.564Zm-4.93,7.109A8.706,8.706,0,0,0,12.468,16.8a2.73,2.73,0,0,0-3.287-3.227,10.6,10.6,0,0,0-2.765,1.09,1.25,1.25,0,0,0,1.227,2.178,8.1,8.1,0,0,1,2.112-.835.208.208,0,0,1,.2.061.219.219,0,0,1,.066.209,6.226,6.226,0,0,1-.806,2.051,1.25,1.25,0,1,0,2.107,1.345Z" transform="translate(945.963 490)"/>
    </g>
    <g id="Group_14" data-name="Group 14" transform="translate(-671 -210)">
      <circle id="Ellipse_22" data-name="Ellipse 22" cx="24" cy="24" r="24" transform="translate(920 482)" fill="#fdfdfd"/>
      <path id="_013-sleeping" data-name="013-sleeping" d="M16,32.008A16,16,0,0,1,11.8.566a1.25,1.25,0,0,1,.655,2.413A13.5,13.5,0,1,0,29.5,16.008a1.25,1.25,0,0,1,2.5,0,16,16,0,0,1-16,16ZM22.25,6.633A1.25,1.25,0,0,0,21,5.383H19.154S21.5,3.658,21.525,3.638a2.043,2.043,0,0,0,.6-2.28A2.047,2.047,0,0,0,20.183.008H17a1.25,1.25,0,1,0,0,2.5h1.846S16.5,4.233,16.474,4.253a2.062,2.062,0,0,0,1.342,3.63H21a1.25,1.25,0,0,0,1.25-1.25Zm-2.5,16A3.75,3.75,0,1,0,16,26.383,3.754,3.754,0,0,0,19.75,22.633Zm-2.5,0A1.25,1.25,0,1,1,16,21.383,1.251,1.251,0,0,1,17.25,22.633ZM32,11.258a1.25,1.25,0,0,0-1.25-1.25H26.682s4.46-3.286,4.483-3.306a2.384,2.384,0,0,0-1.551-4.194H25.187a1.25,1.25,0,1,0,0,2.5h4.068S24.8,8.294,24.772,8.314a2.384,2.384,0,0,0,1.551,4.194H30.75A1.25,1.25,0,0,0,32,11.258Zm-20.717,5a5.7,5.7,0,0,1-3.709-1.04,1.25,1.25,0,0,1,1.6-1.921,3.777,3.777,0,0,0,2.189.46h1.7a1.25,1.25,0,1,1,0,2.5H11.283Zm13.041-.947A1.25,1.25,0,0,0,22.8,13.33a3.805,3.805,0,0,1-2.335.428H18.874a1.25,1.25,0,0,0,0,2.5h0l1.865,0a5.9,5.9,0,0,0,3.584-.949Z" transform="translate(928 489.992)"/>
    </g>
    <g id="Group_16" data-name="Group 16" transform="translate(-914 -206)">
      <circle id="Ellipse_20" data-name="Ellipse 20" cx="24" cy="24" r="24" transform="translate(963 509)" fill="#fdfdfd"/>
      <g id="_007-kiss" data-name="007-kiss" transform="translate(971 516.999)">
        <g id="Group_8" data-name="Group 8" transform="translate(0 0.001)">
          <path id="Path_3" data-name="Path 3" d="M16,32A16,16,0,0,1,4.686,4.687a16,16,0,0,1,27.2,9.417,1.25,1.25,0,1,1-2.483.293,13.5,13.5,0,1,0-6.828,13.4,1.25,1.25,0,1,1,1.22,2.182A16.012,16.012,0,0,1,16,32Z" transform="translate(0 -0.001)"/>
          <path id="Path_4" data-name="Path 4" d="M216.375,283.606a3.435,3.435,0,0,0-.319-1.464.837.837,0,0,1,.024-.683,3.518,3.518,0,0,0,.3-1.454,3.043,3.043,0,0,0-3.045-3h-2.08a1.25,1.25,0,1,0,0,2.5h2.08a.537.537,0,0,1,.545.522,1.02,1.02,0,0,1-.083.427,3.332,3.332,0,0,0-.005,2.742.941.941,0,0,1,.088.406.54.54,0,0,1-.548.528H211.25a1.25,1.25,0,1,0,0,2.5h2.077A3.045,3.045,0,0,0,216.375,283.606Z" transform="translate(-196.875 -259.688)"/>
        </g>
        <path id="Path_5" data-name="Path 5" d="M288.936,177.687a1.25,1.25,0,0,0,.764-2.24A6.18,6.18,0,0,0,285.8,174h-1.55a1.25,1.25,0,0,0,0,2.5h1.591a3.771,3.771,0,0,1,2.335.928A1.245,1.245,0,0,0,288.936,177.687Z" transform="translate(-265.312 -163.123)"/>
        <circle id="Ellipse_7" data-name="Ellipse 7" cx="1.563" cy="1.563" r="1.563" transform="translate(9 11.001)"/>
        <path id="Path_6" data-name="Path 6" d="M350,329.965C350,329.956,350,329.973,350,329.965Z" transform="translate(-328.124 -309.339)"/>
        <path id="Path_7" data-name="Path 7" d="M356.969,279a3.186,3.186,0,0,0-1.906.618,3.179,3.179,0,0,0-5.062,2.57,7.107,7.107,0,0,0,3.206,5.44,3.093,3.093,0,0,0,3.712,0,7.107,7.107,0,0,0,3.206-5.44A3.179,3.179,0,0,0,356.969,279Zm-1.557,6.633a.583.583,0,0,1-.7,0,4.869,4.869,0,0,1-2.213-3.465.668.668,0,0,1,.656-.668.62.62,0,0,1,.656.625,1.25,1.25,0,0,0,2.5,0,.62.62,0,0,1,.656-.625.668.668,0,0,1,.656.668A4.869,4.869,0,0,1,355.412,285.634Z" transform="translate(-328.125 -261.563)"/>
        <path id="Path_8" data-name="Path 8" d="M512,329.965C512,329.973,512,329.956,512,329.965Z" transform="translate(-480 -309.339)"/>
      </g>
    </g>
    <g id="Group_18" data-name="Group 18" transform="translate(-959 -76)">
      <circle id="Ellipse_18" data-name="Ellipse 18" cx="24" cy="24" r="24" transform="translate(1040 482)" fill="#fdfdfd"/>
      <path id="_017-horns" data-name="017-horns" d="M16,32A16.007,16.007,0,0,1,1.067,10.25,3.475,3.475,0,0,0,1.2,8.16L.087,3.644A2.937,2.937,0,0,1,3.665.1L8.081,1.222a3.487,3.487,0,0,0,2.134-.141,16.05,16.05,0,0,1,11.569,0,3.486,3.486,0,0,0,2.134.141L28.335.1a2.937,2.937,0,0,1,3.578,3.548L30.8,8.159a3.545,3.545,0,0,0,.144,2.123h0A16,16,0,0,1,16,32ZM2.932,2.5a.44.44,0,0,0-.418.543L3.626,7.562A5.963,5.963,0,0,1,3.4,11.15a13.5,13.5,0,1,0,25.212.027h0a6.032,6.032,0,0,1-.237-3.615l1.111-4.515a.438.438,0,0,0-.533-.528L24.537,3.644a5.973,5.973,0,0,1-3.656-.232,13.55,13.55,0,0,0-9.76,0,5.972,5.972,0,0,1-3.656.232L3.047,2.518A.464.464,0,0,0,2.932,2.5ZM21.859,19.51a1.25,1.25,0,0,0-1.726.383,5.5,5.5,0,0,1-4.2,2.421,5.5,5.5,0,0,1-4.2-2.421,1.25,1.25,0,0,0-2.109,1.342,8.036,8.036,0,0,0,6.3,3.579,8.036,8.036,0,0,0,6.3-3.579,1.25,1.25,0,0,0-.383-1.726ZM8.911,9.7a1.25,1.25,0,1,0-.322,2.479,3.831,3.831,0,0,1,2.068.768,1.562,1.562,0,0,0,.869,2.861c1.6,0,1.98-1.494,1.98-2.447a2.668,2.668,0,0,0-.788-1.9A6.223,6.223,0,0,0,8.911,9.7ZM24.49,10.779a1.25,1.25,0,0,0-1.4-1.079,6.222,6.222,0,0,0-3.807,1.762,2.668,2.668,0,0,0-.788,1.9,2.234,2.234,0,0,0,1.98,2.447,1.562,1.562,0,0,0,.869-2.861,3.831,3.831,0,0,1,2.068-.768,1.25,1.25,0,0,0,1.079-1.4Z" transform="translate(1048 489.998)"/>
    </g>
    <g id="Group_17" data-name="Group 17" transform="translate(-806 -270)">
      <circle id="Ellipse_19" data-name="Ellipse 19" cx="24" cy="24" r="24" transform="translate(1040 432)" fill="#fdfdfd"/>
      <path id="_036-pirate" data-name="036-pirate" d="M16,32A16,16,0,0,1,4.686,4.686,16,16,0,0,1,27.314,27.314,15.9,15.9,0,0,1,16,32ZM16,2.5A13.5,13.5,0,1,0,29.5,16,13.515,13.515,0,0,0,16,2.5Zm5.827,16.258a1.25,1.25,0,0,0-1.726.383,5.5,5.5,0,0,1-4.2,2.421,5.5,5.5,0,0,1-4.2-2.421A1.25,1.25,0,0,0,9.6,20.484a8.037,8.037,0,0,0,6.3,3.579,8.036,8.036,0,0,0,6.3-3.579,1.25,1.25,0,0,0-.383-1.726ZM10.213,17.066a4.278,4.278,0,0,1-3.968-2.7l-.366-.926a2.5,2.5,0,0,1,1.6-3.312A60.05,60.05,0,0,0,18.987,5.162,1.25,1.25,0,1,1,20.2,7.348a62.625,62.625,0,0,1-12,5.172l.367.925a1.767,1.767,0,0,0,2.315.985,1.633,1.633,0,0,0,.969-.977,1.25,1.25,0,1,1,2.354.843,4.145,4.145,0,0,1-2.372,2.447A4.261,4.261,0,0,1,10.213,17.066Zm11.193-6.754a1.563,1.563,0,1,1-1.562,1.563A1.563,1.563,0,0,1,21.406,10.312Z" transform="translate(1048 440)"/>
    </g>
    <g id="Group_12" data-name="Group 12" transform="translate(-814 -69)">
      <circle id="Ellipse_24" data-name="Ellipse 24" cx="24" cy="24" r="24" transform="translate(1014 457)" fill="#fdfdfd"/>
      <path id="_005-nerd" data-name="005-nerd" d="M16,32A16,16,0,0,1,.241,18.778,1.25,1.25,0,0,1,2.7,18.347a13.5,13.5,0,0,0,26.594,0,1.25,1.25,0,1,1,2.463.431A16,16,0,0,1,16,32ZM29.645,10.169a1.25,1.25,0,0,0,.524-1.688A15.931,15.931,0,0,0,16,0,15.931,15.931,0,0,0,1.831,8.481,1.25,1.25,0,0,0,4.044,9.644,13.438,13.438,0,0,1,16,2.5,13.438,13.438,0,0,1,27.956,9.644a1.249,1.249,0,0,0,1.688.524ZM20.1,23a1.25,1.25,0,1,0-.767-2.379,10.252,10.252,0,0,1-6.709.008,1.25,1.25,0,0,0-.815,2.363,12.492,12.492,0,0,0,4.095.692A13.625,13.625,0,0,0,20.1,23ZM30.75,12.5H26.569a5,5,0,0,0-9.421-.758A1.258,1.258,0,0,1,16,12.5h-.084a1.235,1.235,0,0,1-1.139-.736,5,5,0,0,0-9.434.736H1.25a1.25,1.25,0,1,0,0,2.5h4.1a5.014,5.014,0,0,0,4.622,3.745q.111,0,.222,0a5.084,5.084,0,0,0,2.028-.417,1.25,1.25,0,0,0-1-2.291,2.632,2.632,0,0,1-1.142.205A2.513,2.513,0,0,1,7.69,13.871a2.5,2.5,0,0,1,4.793-1.113A3.733,3.733,0,0,0,15.916,15H16a3.758,3.758,0,0,0,3.438-2.253,2.489,2.489,0,0,1,2.411-1.494,2.514,2.514,0,0,1,2.378,2.378,2.5,2.5,0,0,1-2.5,2.62,2.527,2.527,0,0,1-1.134-.266,1.25,1.25,0,0,0-1.127,2.232,5.04,5.04,0,0,0,2.261.534A5.007,5.007,0,0,0,26.572,15H30.75a1.25,1.25,0,0,0,0-2.5Z" transform="translate(1022 465)"/>
    </g>
    <g id="Group_19" data-name="Group 19" transform="translate(-746 -129)">
      <circle id="Ellipse_17" data-name="Ellipse 17" cx="24" cy="24" r="24" transform="translate(1065 432)" fill="#fdfdfd"/>
      <path id="_010-halo" data-name="010-halo" d="M16,32h0A16.007,16.007,0,0,1,1.441,9.355,6,6,0,0,1,7.907,5.947,49.207,49.207,0,0,0,16,6.562a47.171,47.171,0,0,0,8.963-.777,10.417,10.417,0,0,0,3.69-1.254,10.416,10.416,0,0,0-3.69-1.254A47.171,47.171,0,0,0,16,2.5a47.171,47.171,0,0,0-8.963.777c-2.623.531-3.632,1.15-3.858,1.4A1.25,1.25,0,0,1,.687,4.531c0-1.582,1.663-2.739,5.085-3.537A47.153,47.153,0,0,1,16,0,47.153,47.153,0,0,1,26.228.994c3.422.8,5.085,1.955,5.085,3.537S29.649,7.27,26.228,8.069A47.153,47.153,0,0,1,16,9.062a51.739,51.739,0,0,1-8.515-.651,3.5,3.5,0,0,0-3.771,1.983A13.494,13.494,0,0,0,25.561,25.516,13.494,13.494,0,0,0,28.7,11.422a1.25,1.25,0,1,1,2.352-.848A16.02,16.02,0,0,1,16,32Zm5.858-13.117a1.25,1.25,0,0,0-1.726.383,5.5,5.5,0,0,1-4.2,2.421,5.5,5.5,0,0,1-4.2-2.421,1.25,1.25,0,0,0-2.109,1.342,8.037,8.037,0,0,0,6.3,3.579,8.036,8.036,0,0,0,6.3-3.579,1.25,1.25,0,0,0-.383-1.726Zm-13.483-3.7a1.25,1.25,0,0,1-.806-2.206,5.849,5.849,0,0,1,3.774-1.544h1.719a1.25,1.25,0,1,1,0,2.5H11.344a3.409,3.409,0,0,0-2.164.956,1.245,1.245,0,0,1-.8.294Zm15.186-.062a1.244,1.244,0,0,1-.762-.26,3.778,3.778,0,0,0-2.335-.927H18.874a1.25,1.25,0,0,1,0-2.5h1.55a6.186,6.186,0,0,1,3.9,1.446,1.25,1.25,0,0,1-.764,2.24Z" transform="translate(1073 440)"/>
    </g>
    <g id="Group_20" data-name="Group 20" transform="translate(-1021 -236)">
      <circle id="Ellipse_27" data-name="Ellipse 27" cx="24" cy="24" r="24" transform="translate(1140 422)" fill="#fdfdfd"/>
      <path id="_027-grimacing" data-name="027-grimacing" d="M16,32A16,16,0,0,1,4.686,4.686,16,16,0,0,1,27.314,27.314,15.9,15.9,0,0,1,16,32ZM16,2.5A13.5,13.5,0,1,0,29.5,16,13.515,13.515,0,0,0,16,2.5Zm7.193,18.441a14.019,14.019,0,0,1,.729-1.479.814.814,0,0,1,.515.756,1.25,1.25,0,0,0,2.5,0,3.316,3.316,0,0,0-3.312-3.312c-1.286,0-1.967,1.351-2.593,2.744-.718-1.537-1.293-2.744-2.469-2.744a2.019,2.019,0,0,0-1.656,1.2c-.23.4-.451.907-.666,1.4-.058.133-.127.29-.2.452-.092-.192-.179-.381-.252-.538-.65-1.4-1.163-2.514-2.288-2.514s-1.653,1.1-2.381,2.614l-.136.282-.03-.068a15.611,15.611,0,0,0-.746-1.549,2.215,2.215,0,0,0-1.77-1.279,3.316,3.316,0,0,0-3.313,3.313,1.25,1.25,0,0,0,2.5,0,.814.814,0,0,1,.452-.728c.19.34.428.884.587,1.248.218.5.424.967.645,1.356a1.979,1.979,0,0,0,1.629,1.187,2.1,2.1,0,0,0,1.685-1.222c.254-.421.506-.947.751-1.457l.106-.22.041.088c.7,1.509,1.3,2.811,2.543,2.811A2.173,2.173,0,0,0,17.8,22.022a15.624,15.624,0,0,0,.727-1.511l.07-.158c.069.145.133.283.189.4.685,1.467,1.18,2.526,2.274,2.526s1.548-1.033,2.131-2.34ZM10.5,10.281a1.563,1.563,0,1,1-1.563,1.563A1.563,1.563,0,0,1,10.5,10.281Zm9.375,1.563a1.563,1.563,0,1,0,1.563-1.562A1.563,1.563,0,0,0,19.875,11.844Z" transform="translate(1148 430)"/>
    </g>
    <g id="Group_21" data-name="Group 21" transform="translate(-910 44)">
      <circle id="Ellipse_16" data-name="Ellipse 16" cx="24" cy="24" r="24" transform="translate(1166 397)" fill="#fdfdfd"/>
      <path id="_023-no_expression" data-name="023-no expression" d="M16,32A16,16,0,0,1,4.686,4.686,16,16,0,0,1,27.314,27.314,15.9,15.9,0,0,1,16,32ZM16,2.5A13.5,13.5,0,1,0,29.5,16,13.515,13.515,0,0,0,16,2.5Zm6.25,18.313A1.25,1.25,0,0,0,21,19.562H11a1.25,1.25,0,0,0,0,2.5H21A1.25,1.25,0,0,0,22.25,20.812ZM13.062,14.75H9a1.25,1.25,0,0,1,0-2.5h4.062a1.25,1.25,0,0,1,0,2.5ZM24.25,13.5A1.25,1.25,0,0,0,23,12.25H18.875a1.25,1.25,0,0,0,0,2.5H23A1.25,1.25,0,0,0,24.25,13.5Z" transform="translate(1174 405)"/>
    </g>
  </g>
</svg>
