<svg xmlns="http://www.w3.org/2000/svg" xmlns:xlink="http://www.w3.org/1999/xlink" width="355" height="160" viewBox="0 0 355 160">
  <defs>
    <filter id="Rectangle_42" x="129" y="111" width="98" height="42" filterUnits="userSpaceOnUse">
      <feOffset dy="3" input="SourceAlpha"/>
      <feGaussianBlur stdDeviation="3" result="blur"/>
      <feFlood flood-opacity="0.161"/>
      <feComposite operator="in" in2="blur"/>
      <feComposite in="SourceGraphic"/>
    </filter>
  </defs>
  <g id="Group_73" data-name="Group 73" transform="translate(-10 -329)">
    <rect id="Rectangle_40" data-name="Rectangle 40" width="355" height="160" rx="16" transform="translate(10 329)" fill="#f9474e"/>
    <g id="Group_72" data-name="Group 72">
      <g id="Group_39" data-name="Group 39" transform="translate(-433 -294)">
        <rect id="Rectangle_41" data-name="Rectangle 41" width="40" height="80" transform="translate(601 644)" fill="none"/>
        <g id="Group_38" data-name="Group 38" transform="translate(601 650.667)">
          <path id="Path_32" data-name="Path 32" d="M38.667,2H5.333A3.343,3.343,0,0,0,2,5.333v60a3.343,3.343,0,0,0,3.333,3.333H38.667A3.343,3.343,0,0,0,42,65.333v-60A3.343,3.343,0,0,0,38.667,2ZM10.889,4.222H33.111V5.333A1.111,1.111,0,0,1,32,6.444H12a1.111,1.111,0,0,1-1.111-1.111ZM39.778,65.333a1.111,1.111,0,0,1-1.111,1.111H5.333a1.111,1.111,0,0,1-1.111-1.111v-60A1.111,1.111,0,0,1,5.333,4.222H8.667V5.333A3.343,3.343,0,0,0,12,8.667H32a3.343,3.343,0,0,0,3.333-3.333V4.222h3.333a1.111,1.111,0,0,1,1.111,1.111Z" transform="translate(-2 -2)" fill="#fdfdfd"/>
          <path id="Path_33" data-name="Path 33" d="M24.444,16H17.778A7.787,7.787,0,0,0,10,23.778v1.111a1.148,1.148,0,0,0,.322.789l3.011,3v3.989a7.778,7.778,0,0,0,15.556,0V28.678l3.011-3a1.148,1.148,0,0,0,.322-.789V23.778A7.787,7.787,0,0,0,24.444,16Zm2.222,16.667a5.556,5.556,0,1,1-11.111,0V26.689l3.467-1.733,7.644,1.911ZM30,24.433l-1.189,1.178a1.09,1.09,0,0,0-.767-.689L19.156,22.7a1.087,1.087,0,0,0-.767.089l-4.444,2.222a1.073,1.073,0,0,0-.533.611l-1.189-1.189v-.656a5.556,5.556,0,0,1,5.556-5.556h6.667A5.556,5.556,0,0,1,30,23.778Z" transform="translate(-1.111 -0.444)" fill="#fdfdfd"/>
          <path id="Path_34" data-name="Path 34" d="M20.444,50a4.444,4.444,0,1,0,4.444,4.444A4.444,4.444,0,0,0,20.444,50Zm0,6.667a2.222,2.222,0,1,1,2.222-2.222A2.222,2.222,0,0,1,20.444,56.667Z" transform="translate(-0.444 3.334)" fill="#fdfdfd"/>
          <path id="Path_35" data-name="Path 35" d="M33.444,12H29v2.222h3.333v5.556h2.222V13.111A1.111,1.111,0,0,0,33.444,12Z" transform="translate(1 -0.889)" fill="#fdfdfd"/>
          <path id="Path_36" data-name="Path 36" d="M8.222,14.222h3.333V12H7.111A1.111,1.111,0,0,0,6,13.111v6.667H8.222Z" transform="translate(-1.556 -0.889)" fill="#fdfdfd"/>
          <path id="Path_37" data-name="Path 37" d="M32.333,40.556H29v2.222h4.444a1.111,1.111,0,0,0,1.111-1.111V35H32.333Z" transform="translate(1 1.667)" fill="#fdfdfd"/>
          <path id="Path_38" data-name="Path 38" d="M8.222,35H6v6.667a1.111,1.111,0,0,0,1.111,1.111h4.444V40.556H8.222Z" transform="translate(-1.556 1.667)" fill="#fdfdfd"/>
        </g>
      </g>
      <g id="Group_40" data-name="Group 40" transform="translate(-8 -8)">
        <g transform="matrix(1, 0, 0, 1, 18, 337)" filter="url(#Rectangle_42)">
          <g id="Rectangle_42-2" data-name="Rectangle 42" transform="translate(138 117)" fill="#f9474e" stroke="#fdfdfd" stroke-width="1">
            <rect width="80" height="24" rx="12" stroke="none"/>
            <rect x="0.5" y="0.5" width="79" height="23" rx="11.5" fill="none"/>
          </g>
        </g>
        <text id="START" transform="translate(196 470)" fill="#fdfdfd" font-size="12" font-family="Roboto-Medium, Roboto" font-weight="500"><tspan x="-18.144" y="0">START</tspan></text>
      </g>
      <g id="Group_71" data-name="Group 71">
        <g id="Group_16" data-name="Group 16" transform="matrix(0.799, -0.602, 0.602, 0.799, -1053.215, 520.681)">
          <circle id="Ellipse_20" data-name="Ellipse 20" cx="12" cy="12" r="12" transform="translate(963 509)" fill="#f9474e"/>
          <g id="_007-kiss" data-name="007-kiss" transform="translate(967 513)">
            <g id="Group_8" data-name="Group 8" transform="translate(0 0)">
              <path id="Path_3" data-name="Path 3" d="M8,16A8,8,0,0,1,2.343,2.344a8,8,0,0,1,13.6,4.708A.625.625,0,1,1,14.7,7.2a6.748,6.748,0,1,0-3.414,6.7.625.625,0,1,1,.61,1.091A8.006,8.006,0,0,1,8,16Z" transform="translate(0 -0.001)" fill="#fdfdfd"/>
              <path id="Path_4" data-name="Path 4" d="M213.187,280.3a1.717,1.717,0,0,0-.16-.732.419.419,0,0,1,.012-.342,1.759,1.759,0,0,0,.148-.727,1.522,1.522,0,0,0-1.522-1.5h-1.04a.625.625,0,1,0,0,1.25h1.04a.269.269,0,0,1,.272.261.51.51,0,0,1-.041.214,1.666,1.666,0,0,0,0,1.371.47.47,0,0,1,.044.2.27.27,0,0,1-.274.264h-1.038a.625.625,0,0,0,0,1.25h1.038A1.522,1.522,0,0,0,213.187,280.3Z" transform="translate(-203.437 -268.344)" fill="#fdfdfd"/>
            </g>
            <path id="Path_5" data-name="Path 5" d="M285.967,175.843a.625.625,0,0,0,.382-1.12A3.09,3.09,0,0,0,284.4,174h-.775a.625.625,0,0,0,0,1.25h.8a1.885,1.885,0,0,1,1.167.464A.622.622,0,0,0,285.967,175.843Z" transform="translate(-274.155 -168.562)" fill="#fdfdfd"/>
            <circle id="Ellipse_7" data-name="Ellipse 7" cx="0.781" cy="0.781" r="0.781" transform="translate(4.5 5.5)" fill="#fdfdfd"/>
            <path id="Path_6" data-name="Path 6" d="M350,329.963S350,329.968,350,329.963Z" transform="translate(-339.061 -319.651)"/>
            <path id="Path_7" data-name="Path 7" d="M353.484,279a1.625,1.625,0,0,1-1.906,0A1.589,1.589,0,0,0,350,280.595a3.553,3.553,0,0,0,1.6,2.72,1.546,1.546,0,0,0,1.856,0,3.553,3.553,0,0,0,1.6-2.72A1.589,1.589,0,0,0,353.484,279Zm-.778,3.316a.291.291,0,0,1-.35,0,2.434,2.434,0,0,1-1.106-1.732.334.334,0,0,1,.328-.334.31.31,0,0,1,.328.313.625.625,0,0,0,1.25,0,.31.31,0,0,1,.328-.312.334.334,0,0,1,.328.334A2.435,2.435,0,0,1,352.706,282.317Z" transform="translate(-339.063 -270.282)" fill="#fdfdfd"/>
            <path id="Path_8" data-name="Path 8" d="M512,329.963S512,329.959,512,329.963Z" transform="translate(-496 -319.651)"/>
          </g>
        </g>
        <g id="Group_10" data-name="Group 10" transform="translate(-679.242 -288.27) rotate(20)">
          <circle id="Ellipse_26" data-name="Ellipse 26" cx="12" cy="12" r="12" transform="translate(942 436)" fill="#f9474e"/>
          <path id="_045-party" data-name="045-party" d="M8,16.022a7.969,7.969,0,0,1-4.983-1.741A.625.625,0,1,1,3.8,13.3,6.677,6.677,0,0,0,8,14.772a6.758,6.758,0,0,0,6.75-6.75.625.625,0,0,1,1.25,0,8,8,0,0,1-8,8ZM1.328,6.992A6.791,6.791,0,0,1,8,1.272.625.625,0,0,0,8,.022,8,8,0,0,0,.092,6.8a.625.625,0,1,0,1.236.189ZM14.1,6.506A1.69,1.69,0,0,0,15.1,5.342l.859-3.491A1.469,1.469,0,0,0,14.169.077h0L10.736.953A1.7,1.7,0,0,0,9.719,3.516,8.863,8.863,0,0,0,12.583,6.4a1.683,1.683,0,0,0,1.521.1Zm.373-5.218a.219.219,0,0,1,.266.264l-.859,3.491a.451.451,0,0,1-.266.311.444.444,0,0,1-.4-.026,7.616,7.616,0,0,1-2.443-2.48.454.454,0,0,1,.27-.684ZM8,11.462a.625.625,0,0,0-.625-.625l-5.5,0a.625.625,0,1,1,0-1.25.643.643,0,0,1,.437.2.625.625,0,1,0,.875-.893,1.875,1.875,0,0,0-1.313-.554,1.875,1.875,0,0,0,0,3.75l5.5,0h0A.625.625,0,0,0,8,11.462ZM4.188,8.272a.625.625,0,0,1-.4-1.1A2.912,2.912,0,0,1,5.69,6.4h.841a.625.625,0,0,1,0,1.25H5.672a1.727,1.727,0,0,0-1.082.478A.623.623,0,0,1,4.188,8.272Zm7.593-.031a.622.622,0,0,1-.381-.13,1.891,1.891,0,0,0-1.167-.464h-.8a.625.625,0,0,1,0-1.25h.775a3.1,3.1,0,0,1,1.95.723.625.625,0,0,1-.382,1.12ZM0,.8A.781.781,0,1,0,.781.022.781.781,0,0,0,0,.8ZM10.625,11.3a.781.781,0,1,0,.781-.781A.781.781,0,0,0,10.625,11.3Zm3.813,3.281a.781.781,0,1,0,.781-.781A.781.781,0,0,0,14.438,14.584Z" transform="translate(946 439.978)" fill="#fdfdfd"/>
        </g>
        <g id="Group_20" data-name="Group 20" transform="translate(-1097.103 194.267) rotate(-13)">
          <circle id="Ellipse_27" data-name="Ellipse 27" cx="12" cy="12" r="12" transform="translate(1140 422)" fill="#f9474e"/>
          <path id="_027-grimacing" data-name="027-grimacing" d="M8,16A8,8,0,0,1,2.343,2.343,8,8,0,0,1,13.657,13.657,7.948,7.948,0,0,1,8,16ZM8,1.25A6.75,6.75,0,1,0,14.75,8,6.758,6.758,0,0,0,8,1.25Zm3.6,9.221a7.009,7.009,0,0,1,.365-.739.407.407,0,0,1,.258.378.625.625,0,1,0,1.25,0,1.658,1.658,0,0,0-1.656-1.656c-.643,0-.984.676-1.3,1.372-.359-.769-.647-1.372-1.235-1.372a1.01,1.01,0,0,0-.828.6c-.115.2-.226.454-.333.7-.029.066-.064.145-.1.226-.046-.1-.09-.191-.126-.269-.325-.7-.582-1.257-1.144-1.257S5.924,9,5.559,9.76L5.492,9.9l-.015-.034A7.806,7.806,0,0,0,5.1,9.093a1.107,1.107,0,0,0-.885-.64,1.658,1.658,0,0,0-1.656,1.656.625.625,0,0,0,1.25,0,.407.407,0,0,1,.226-.364c.095.17.214.442.294.624.109.249.212.483.322.678a.99.99,0,0,0,.814.593,1.05,1.05,0,0,0,.842-.611c.127-.21.253-.474.375-.728l.053-.11.02.044c.349.754.65,1.406,1.272,1.406a1.086,1.086,0,0,0,.87-.63,7.812,7.812,0,0,0,.363-.755l.035-.079.095.2c.342.733.59,1.263,1.137,1.263s.774-.516,1.065-1.17ZM5.25,5.141a.781.781,0,1,1-.781.781A.781.781,0,0,1,5.25,5.141Zm4.687.781a.781.781,0,1,0,.781-.781A.781.781,0,0,0,9.937,5.922Z" transform="translate(1144 426)" fill="#fdfdfd"/>
        </g>
        <g id="Group_13" data-name="Group 13" transform="matrix(0.996, 0.087, -0.087, 0.996, -819.494, -169.17)">
          <circle id="Ellipse_23" data-name="Ellipse 23" cx="12" cy="12" r="12" transform="translate(895 482)" fill="#f9474e"/>
          <path id="_026-angry" data-name="026-angry" d="M8,16A8,8,0,0,1,2.343,2.343,8,8,0,0,1,13.657,13.657,7.948,7.948,0,0,1,8,16ZM8,1.25A6.75,6.75,0,1,0,14.75,8,6.758,6.758,0,0,0,8,1.25Zm3.121,9.821A4.018,4.018,0,0,0,7.969,9.281a4.018,4.018,0,0,0-3.152,1.789.625.625,0,0,0,1.055.671,2.751,2.751,0,0,1,2.1-1.211,2.751,2.751,0,0,1,2.1,1.211.625.625,0,0,0,1.055-.671ZM4.455,4.849a.625.625,0,1,0-.161,1.24,1.916,1.916,0,0,1,1.034.384A.781.781,0,0,0,5.763,7.9a1.1,1.1,0,0,0,.99-1.223,1.334,1.334,0,0,0-.394-.95,3.111,3.111,0,0,0-1.9-.881Zm7.789.539a.625.625,0,0,0-.7-.539,3.111,3.111,0,0,0-1.9.881,1.334,1.334,0,0,0-.394.95c0,.672.337,1.223.99,1.223a.781.781,0,0,0,.434-1.431,1.916,1.916,0,0,1,1.034-.384A.625.625,0,0,0,12.245,5.388Z" transform="translate(899 486)" fill="#fdfdfd"/>
        </g>
        <g id="Group_17" data-name="Group 17" transform="translate(-204.992 -688.976) rotate(51)">
          <circle id="Ellipse_19" data-name="Ellipse 19" cx="12" cy="12" r="12" transform="translate(1040 432)" fill="#f9474e"/>
          <path id="_036-pirate" data-name="036-pirate" d="M8,16A8,8,0,0,1,2.343,2.343,8,8,0,0,1,13.657,13.657,7.948,7.948,0,0,1,8,16ZM8,1.25A6.75,6.75,0,1,0,14.75,8,6.758,6.758,0,0,0,8,1.25Zm2.914,8.129a.625.625,0,0,0-.863.192,2.751,2.751,0,0,1-2.1,1.211,2.751,2.751,0,0,1-2.1-1.211.625.625,0,0,0-1.055.671,4.018,4.018,0,0,0,3.152,1.789,4.018,4.018,0,0,0,3.152-1.789.625.625,0,0,0-.192-.863ZM5.106,8.533A2.139,2.139,0,0,1,3.122,7.182l-.183-.463a1.25,1.25,0,0,1,.8-1.656A30.025,30.025,0,0,0,9.493,2.581.625.625,0,1,1,10.1,3.674a31.312,31.312,0,0,1-6,2.586l.184.463a.884.884,0,0,0,1.158.493.817.817,0,0,0,.485-.489A.625.625,0,1,1,7.1,7.148,2.072,2.072,0,0,1,5.918,8.371,2.13,2.13,0,0,1,5.106,8.533Zm5.6-3.377a.781.781,0,1,1-.781.781A.781.781,0,0,1,10.7,5.156Z" transform="translate(1044 436)" fill="#fdfdfd"/>
        </g>
        <g id="Group_44" data-name="Group 44" transform="matrix(0.891, 0.454, -0.454, 0.891, -448.068, -551.755)">
          <circle id="Ellipse_18" data-name="Ellipse 18" cx="12" cy="12" r="12" transform="translate(1040 482)" fill="#f9474e"/>
          <path id="_017-horns" data-name="017-horns" d="M8,16A8,8,0,0,1,.533,5.126,1.737,1.737,0,0,0,.6,4.081L.043,1.823A1.469,1.469,0,0,1,1.833.049L4.041.612A1.743,1.743,0,0,0,5.108.542a8.025,8.025,0,0,1,5.785,0,1.743,1.743,0,0,0,1.067.07L14.167.049a1.469,1.469,0,0,1,1.789,1.774L15.4,4.081a1.772,1.772,0,0,0,.072,1.062h0A8,8,0,0,1,8,16ZM1.466,1.253a.22.22,0,0,0-.209.272l.556,2.258A2.981,2.981,0,0,1,1.7,5.576a6.75,6.75,0,1,0,12.606.014h0a3.016,3.016,0,0,1-.119-1.808l.556-2.258a.219.219,0,0,0-.266-.264l-2.208.563a2.986,2.986,0,0,1-1.828-.116,6.775,6.775,0,0,0-4.88,0,2.986,2.986,0,0,1-1.828.116L1.524,1.26a.232.232,0,0,0-.058-.007Zm9.463,8.5a.625.625,0,0,0-.863.192,2.751,2.751,0,0,1-2.1,1.211,2.751,2.751,0,0,1-2.1-1.211.625.625,0,0,0-1.055.671,4.018,4.018,0,0,0,3.152,1.789,4.018,4.018,0,0,0,3.152-1.789.625.625,0,0,0-.192-.863Zm-6.474-4.9a.625.625,0,1,0-.161,1.24,1.915,1.915,0,0,1,1.034.384.781.781,0,0,0,.434,1.431c.8,0,.99-.747.99-1.223a1.334,1.334,0,0,0-.394-.95A3.111,3.111,0,0,0,4.455,4.851Zm7.789.539a.625.625,0,0,0-.7-.539,3.111,3.111,0,0,0-1.9.881,1.334,1.334,0,0,0-.394.95,1.117,1.117,0,0,0,.99,1.223.781.781,0,0,0,.434-1.431,1.915,1.915,0,0,1,1.034-.384.625.625,0,0,0,.539-.7Z" transform="translate(1044 485.998)" fill="#fdfdfd"/>
        </g>
        <g id="Group_43" data-name="Group 43" transform="matrix(0.602, -0.799, 0.799, 0.602, -632.417, 918.032)">
          <circle id="Ellipse_22" data-name="Ellipse 22" cx="12" cy="12" r="12" transform="translate(920 482)" fill="#f9474e"/>
          <path id="_013-sleeping" data-name="013-sleeping" d="M8,16.008A8,8,0,0,1,5.9.287a.625.625,0,0,1,.328,1.206A6.751,6.751,0,1,0,14.75,8.008a.625.625,0,0,1,1.25,0,8,8,0,0,1-8,8ZM11.125,3.32A.625.625,0,0,0,10.5,2.7H9.577s1.174-.863,1.186-.873a1.021,1.021,0,0,0,.3-1.14,1.023,1.023,0,0,0-.969-.675H8.5a.625.625,0,1,0,0,1.25h.923s-1.174.863-1.186.873a1.031,1.031,0,0,0,.671,1.815H10.5a.625.625,0,0,0,.625-.625Zm-1.25,8A1.875,1.875,0,1,0,8,13.2,1.877,1.877,0,0,0,9.875,11.32Zm-1.25,0A.625.625,0,1,1,8,10.7.626.626,0,0,1,8.625,11.32ZM16,5.633a.625.625,0,0,0-.625-.625H13.341s2.23-1.643,2.241-1.653a1.192,1.192,0,0,0-.776-2.1H12.594a.625.625,0,1,0,0,1.25h2.034S12.4,4.151,12.386,4.161a1.192,1.192,0,0,0,.776,2.1h2.213A.625.625,0,0,0,16,5.633ZM5.642,8.133a2.851,2.851,0,0,1-1.854-.52.625.625,0,0,1,.8-.96,1.889,1.889,0,0,0,1.094.23h.849a.625.625,0,1,1,0,1.25h-.89Zm6.521-.473a.625.625,0,0,0-.762-.991,1.9,1.9,0,0,1-1.168.214h-.8a.625.625,0,0,0,0,1.25h.933a2.95,2.95,0,0,0,1.792-.475Z" transform="translate(924 485.992)" fill="#fdfdfd"/>
        </g>
        <g id="Group_45" data-name="Group 45" transform="matrix(0.966, 0.259, -0.259, 0.966, -584.654, -271.568)">
          <circle id="Ellipse_24" data-name="Ellipse 24" cx="12" cy="12" r="12" transform="translate(1014 457)" fill="#f9474e"/>
          <path id="_005-nerd" data-name="005-nerd" d="M8,16A8,8,0,0,1,.12,9.389a.625.625,0,0,1,1.231-.216,6.751,6.751,0,0,0,13.3,0,.625.625,0,1,1,1.231.216A8,8,0,0,1,8,16ZM14.822,5.084a.625.625,0,0,0,.262-.844A7.965,7.965,0,0,0,8,0,7.965,7.965,0,0,0,.916,4.24a.625.625,0,0,0,1.106.582A6.719,6.719,0,0,1,8,1.25a6.719,6.719,0,0,1,5.978,3.572.625.625,0,0,0,.844.262ZM10.051,11.5a.625.625,0,1,0-.384-1.19,5.126,5.126,0,0,1-3.354,0A.625.625,0,0,0,5.906,11.5a6.246,6.246,0,0,0,2.047.346A6.812,6.812,0,0,0,10.051,11.5ZM15.375,6.25H13.284a2.5,2.5,0,0,0-4.71-.379A.629.629,0,0,1,8,6.25H7.958a.617.617,0,0,1-.569-.368,2.5,2.5,0,0,0-4.717.368H.625a.625.625,0,1,0,0,1.25H2.674A2.507,2.507,0,0,0,4.985,9.373l.111,0A2.542,2.542,0,0,0,6.11,9.167a.625.625,0,0,0-.5-1.145,1.316,1.316,0,0,1-.571.1A1.256,1.256,0,0,1,3.845,6.936a1.25,1.25,0,0,1,2.4-.557A1.866,1.866,0,0,0,7.958,7.5H8A1.879,1.879,0,0,0,9.719,6.373a1.244,1.244,0,0,1,1.205-.747,1.257,1.257,0,0,1,1.189,1.189,1.25,1.25,0,0,1-1.249,1.31,1.264,1.264,0,0,1-.567-.133.625.625,0,0,0-.563,1.116,2.52,2.52,0,0,0,1.13.267A2.5,2.5,0,0,0,13.286,7.5h2.089a.625.625,0,0,0,0-1.25Z" transform="translate(1018 461)" fill="#fdfdfd"/>
        </g>
        <g id="Group_41" data-name="Group 41" transform="translate(-726.035 136.737) rotate(-11)">
          <circle id="Ellipse_25" data-name="Ellipse 25" cx="12" cy="12" r="12" transform="translate(963 407)" fill="#f9474e"/>
          <path id="_047-stars" data-name="047-stars" d="M8,16A8,8,0,0,1,0,8,.625.625,0,0,1,1.25,8a6.75,6.75,0,1,0,13.5,0A.625.625,0,1,1,16,8a8,8,0,0,1-8,8ZM10.723,1.115A.625.625,0,0,0,10.3.337a8.046,8.046,0,0,0-4.6,0,.625.625,0,0,0,.359,1.2,6.8,6.8,0,0,1,3.885,0,.624.624,0,0,0,.778-.419Zm.354,10.147A1.382,1.382,0,0,0,11.1,9.847a1.411,1.411,0,0,0-1.23-.722H6.125a1.411,1.411,0,0,0-1.23.722,1.382,1.382,0,0,0,.028,1.415A3.392,3.392,0,0,0,8,12.875a3.392,3.392,0,0,0,3.076-1.613Zm-1.2-.887a.154.154,0,0,1,.139.082.142.142,0,0,1,0,.15A2.192,2.192,0,0,1,8,11.625a2.192,2.192,0,0,1-2.011-1.018.142.142,0,0,1,0-.15.154.154,0,0,1,.139-.082Zm2.983-2.281a1.176,1.176,0,0,1-.546-.135l-.623-.326-.623.326a1.173,1.173,0,0,1-1.7-1.236l.118-.687-.5-.487a1.17,1.17,0,0,1,.65-2l.7-.1.311-.627a1.175,1.175,0,0,1,2.1,0l.311.627.7.1a1.17,1.17,0,0,1,.65,2l-.5.487.118.687a1.174,1.174,0,0,1-1.155,1.371ZM11.689,6.373a1.175,1.175,0,0,1,.545.134l.521.273-.1-.573a1.169,1.169,0,0,1,.338-1.038l.416-.4-.577-.083a1.173,1.173,0,0,1-.884-.64l-.261-.526-.261.526a1.173,1.173,0,0,1-.883.64l-.577.083.416.4a1.169,1.169,0,0,1,.338,1.038l-.1.573.521-.273a1.175,1.175,0,0,1,.545-.134ZM13.07,3.487h0Zm-1.449-.108h0ZM5.48,8.094a1.176,1.176,0,0,1-.546-.135l-.623-.326-.623.326a1.173,1.173,0,0,1-1.7-1.236L2.1,6.036l-.5-.487a1.17,1.17,0,0,1,.65-2l.7-.1.311-.627a1.175,1.175,0,0,1,2.1,0l.311.627.7.1a1.17,1.17,0,0,1,.65,2l-.5.487.118.687A1.174,1.174,0,0,1,5.48,8.094ZM4.311,6.373a1.175,1.175,0,0,1,.545.134l.521.273-.1-.573a1.169,1.169,0,0,1,.338-1.038l.416-.4-.577-.083a1.173,1.173,0,0,1-.883-.64l-.261-.526-.261.526a1.173,1.173,0,0,1-.883.64l-.577.083.416.4a1.169,1.169,0,0,1,.338,1.038l-.1.573.521-.273A1.175,1.175,0,0,1,4.311,6.373Zm.068-2.994h0Z" transform="translate(967 411)" fill="#fdfdfd"/>
        </g>
        <g id="Group_46" data-name="Group 46" transform="translate(-896.437 485.068) rotate(-22)">
          <circle id="Ellipse_16" data-name="Ellipse 16" cx="12" cy="12" r="12" transform="translate(1166 397)" fill="#f9474e"/>
          <path id="_023-no_expression" data-name="023-no expression" d="M8,16A8,8,0,0,1,2.343,2.343,8,8,0,0,1,13.657,13.657,7.948,7.948,0,0,1,8,16ZM8,1.25A6.75,6.75,0,1,0,14.75,8,6.758,6.758,0,0,0,8,1.25Zm3.125,9.156a.625.625,0,0,0-.625-.625h-5a.625.625,0,0,0,0,1.25h5A.625.625,0,0,0,11.125,10.406ZM6.531,7.375H4.5a.625.625,0,0,1,0-1.25H6.531a.625.625,0,0,1,0,1.25Zm5.594-.625a.625.625,0,0,0-.625-.625H9.437a.625.625,0,0,0,0,1.25H11.5A.625.625,0,0,0,12.125,6.75Z" transform="translate(1170 401)" fill="#fdfdfd"/>
        </g>
        <g id="Group_42" data-name="Group 42" transform="translate(-662 -93)">
          <circle id="Ellipse_21" data-name="Ellipse 21" cx="12" cy="12" r="12" transform="translate(937 482)" fill="#f9474e"/>
          <path id="_022-rolling" data-name="022-rolling" d="M8.981,12.595a3.475,3.475,0,0,1-.805-.1,1.389,1.389,0,0,1-1.026-.986,1.418,1.418,0,0,1,.361-1.388l2.677-2.677a1.418,1.418,0,0,1,1.388-.361,1.389,1.389,0,0,1,.986,1.026,3.419,3.419,0,0,1-1.043,3.343A3.519,3.519,0,0,1,8.981,12.595Zm2.206-4.313a.158.158,0,0,0-.115.049h0L8.395,11.008a.162.162,0,0,0-.042.164.149.149,0,0,0,.113.11,2.219,2.219,0,0,0,2.169-.711A2.219,2.219,0,0,0,11.346,8.4a.149.149,0,0,0-.11-.113A.184.184,0,0,0,11.187,8.282Zm2.96-1.906c-.307,0-.848-.1-2-1.008a1.1,1.1,0,0,1,0-1.733c1.155-.9,1.7-1.008,2-1.008a1.875,1.875,0,1,1,0,3.75ZM13.066,4.5a2.876,2.876,0,0,0,1.083.625.625.625,0,1,0,0-1.25A2.876,2.876,0,0,0,13.066,4.5ZM10.932,15.456a7.994,7.994,0,0,0,5.1-7.7.625.625,0,1,0-1.249.037,6.749,6.749,0,0,1-6.948,6.948A.625.625,0,1,0,7.8,15.994q.122,0,.244,0A7.962,7.962,0,0,0,10.932,15.456ZM2.026,12.32a.625.625,0,0,0,.215-.857A6.752,6.752,0,0,1,11.5,2.2a.625.625,0,0,0,.642-1.072A8.042,8.042,0,0,0,7.1.054,8,8,0,0,0,.091,7.064,8.041,8.041,0,0,0,1.169,12.1a.625.625,0,0,0,.857.215ZM4.5,16a1.882,1.882,0,0,1-1.875-1.886c0-.307.1-.848,1.008-2h0a1.1,1.1,0,0,1,1.733,0c.9,1.155,1.008,1.7,1.008,2A1.882,1.882,0,0,1,4.5,16Zm-.625-1.883a.625.625,0,1,0,1.25,0A2.875,2.875,0,0,0,4.5,13.034,2.876,2.876,0,0,0,3.877,14.117ZM8.146,6.282A1.366,1.366,0,0,1,6.82,4.608a5.3,5.3,0,0,1,.545-1.382.625.625,0,0,1,1.089.613,4.048,4.048,0,0,0-.418,1.056.1.1,0,0,0,.03.1.109.109,0,0,0,.1.033,3.112,3.112,0,0,0,1.026-.4A.625.625,0,0,1,9.869,5.68a4.353,4.353,0,0,1-1.436.572A1.375,1.375,0,0,1,8.146,6.282ZM5.681,9.837A4.353,4.353,0,0,0,6.253,8.4,1.365,1.365,0,0,0,4.609,6.787a5.3,5.3,0,0,0-1.382.545A.625.625,0,0,0,3.84,8.422,4.049,4.049,0,0,1,4.9,8a.1.1,0,0,1,.1.03.109.109,0,0,1,.033.1,3.113,3.113,0,0,1-.4,1.026.625.625,0,1,0,1.054.672Z" transform="translate(941.463 486)" fill="#fdfdfd"/>
        </g>
      </g>
    </g>
  </g>
</svg>
