<svg xmlns="http://www.w3.org/2000/svg" xmlns:xlink="http://www.w3.org/1999/xlink" width="178" height="178" viewBox="0 0 178 178">
  <defs>
    <filter id="Path_22" x="0" y="0" width="178" height="178" filterUnits="userSpaceOnUse">
      <feOffset dy="3" input="SourceAlpha"/>
      <feGaussianBlur stdDeviation="3" result="blur"/>
      <feFlood flood-opacity="0.161"/>
      <feComposite operator="in" in2="blur"/>
      <feComposite in="SourceGraphic"/>
    </filter>
    <clipPath id="clip-path">
      <rect id="Rectangle_17" data-name="Rectangle 17" width="160" height="160" rx="16" fill="#101010"/>
    </clipPath>
    <linearGradient id="linear-gradient" x1="0.327" y1="0.332" x2="0.791" y2="0.909" gradientUnits="objectBoundingBox">
      <stop offset="0" stop-color="#f9474e"/>
      <stop offset="1" stop-color="#1957ea"/>
    </linearGradient>
    <filter id="Ellipse_3" x="15" y="19.636" width="148" height="148.806" filterUnits="userSpaceOnUse">
      <feOffset dy="6" input="SourceAlpha"/>
      <feGaussianBlur stdDeviation="6" result="blur-2"/>
      <feFlood flood-opacity="0.161"/>
      <feComposite operator="in" in2="blur-2"/>
      <feComposite in="SourceGraphic"/>
    </filter>
  </defs>
  <g id="Group_6" data-name="Group 6" transform="translate(-1181 -150)">
    <g transform="matrix(1, 0, 0, 1, 1181, 150)" filter="url(#Path_22)">
      <path id="Path_22-2" data-name="Path 22" d="M16,0H144a16,16,0,0,1,16,16V144a16,16,0,0,1-16,16H16A16,16,0,0,1,0,144V16A16,16,0,0,1,16,0Z" transform="translate(9 6)" fill="#101010"/>
    </g>
    <g id="Mask_Group_1" data-name="Mask Group 1" transform="translate(1190 156)" clip-path="url(#clip-path)">
      <g id="Group_5" data-name="Group 5" transform="translate(-16 -16)">
        <g id="Group_1" data-name="Group 1" transform="translate(40 36.8)">
          <g transform="matrix(1, 0, 0, 1, -33, -26.8)" filter="url(#Ellipse_3)">
            <ellipse id="Ellipse_3-2" data-name="Ellipse 3" cx="56" cy="56.403" rx="56" ry="56.403" transform="translate(33 31.64)" fill="url(#linear-gradient)"/>
          </g>
          <rect id="Rectangle_15" data-name="Rectangle 15" width="16.8" height="46.4" transform="matrix(0.94, -0.342, 0.342, 0.94, 23.508, 5.746)" fill="#101010"/>
          <circle id="Ellipse_2" data-name="Ellipse 2" cx="24" cy="24" r="24" transform="translate(32 38.008)" fill="#101010"/>
          <text id="e" transform="translate(43.742 70.857)" fill="#fdfdfd" font-size="40" font-family="Roboto-Medium, Roboto" font-weight="500"><tspan x="0" y="0">e</tspan></text>
        </g>
        <g id="Group_3" data-name="Group 3">
          <g id="Ellipse_4" data-name="Ellipse 4" transform="translate(12 12)" fill="none" stroke="#333" stroke-width="1">
            <circle cx="84" cy="84" r="84" stroke="none"/>
            <circle cx="84" cy="84" r="83.5" fill="none"/>
          </g>
          <g id="Ellipse_6" data-name="Ellipse 6" fill="none" stroke="#333" stroke-width="1">
            <circle cx="96" cy="96" r="96" stroke="none"/>
            <circle cx="96" cy="96" r="95.5" fill="none"/>
          </g>
          <g id="Ellipse_5" data-name="Ellipse 5" transform="translate(24 24)" fill="none" stroke="#333" stroke-width="1">
            <circle cx="72" cy="72" r="72" stroke="none"/>
            <circle cx="72" cy="72" r="71.5" fill="none"/>
          </g>
        </g>
      </g>
    </g>
  </g>
</svg>
